<?xml version="1.0" encoding="UTF-8"?>
<svg stroke="currentColor"
     fill="currentColor"
     stroke-width="0"
     role="img"
     viewBox="0 0 24 24"
     height="1em"
     width="1em"
     xmlns="http://www.w3.org/2000/svg">
    <g id="surface1">
        <path style=" stroke:none;fill-rule:evenodd;fill-opacity:1;"
              d="M 11.039062 0.773438 C 11.679688 0.765625 12.320312 0.773438 12.960938 0.796875 C 13.015625 0.816406 13.0625 0.847656 13.101562 0.890625 C 13.851562 0.964844 14.585938 1.089844 15.304688 1.265625 C 15.644531 1.449219 16.003906 1.582031 16.382812 1.664062 C 16.773438 1.886719 17.179688 2.082031 17.601562 2.25 C 18.007812 2.5 18.398438 2.773438 18.773438 3.070312 C 18.96875 3.226562 19.15625 3.390625 19.335938 3.5625 C 19.378906 3.585938 19.425781 3.59375 19.476562 3.585938 C 19.464844 3.640625 19.480469 3.6875 19.523438 3.726562 C 19.804688 3.945312 20.054688 4.195312 20.273438 4.476562 C 20.3125 4.519531 20.359375 4.535156 20.414062 4.523438 C 20.40625 4.574219 20.414062 4.621094 20.4375 4.664062 C 21.160156 5.441406 21.722656 6.316406 22.125 7.289062 C 22.214844 7.382812 22.285156 7.492188 22.335938 7.617188 C 22.417969 7.996094 22.550781 8.355469 22.734375 8.695312 C 22.910156 9.414062 23.035156 10.148438 23.109375 10.898438 C 23.152344 10.9375 23.183594 10.984375 23.203125 11.039062 C 23.234375 11.679688 23.234375 12.320312 23.203125 12.960938 C 23.183594 13.015625 23.152344 13.0625 23.109375 13.101562 C 23.035156 13.851562 22.910156 14.585938 22.734375 15.304688 C 22.550781 15.644531 22.417969 16.003906 22.335938 16.382812 C 22.113281 16.773438 21.917969 17.179688 21.75 17.601562 C 21.5 18.007812 21.226562 18.398438 20.929688 18.773438 C 20.773438 18.96875 20.609375 19.15625 20.4375 19.335938 C 20.414062 19.378906 20.40625 19.425781 20.414062 19.476562 C 20.359375 19.464844 20.3125 19.480469 20.273438 19.523438 C 20.054688 19.804688 19.804688 20.054688 19.523438 20.273438 C 19.480469 20.3125 19.464844 20.359375 19.476562 20.414062 C 19.425781 20.40625 19.378906 20.414062 19.335938 20.4375 C 18.558594 21.160156 17.683594 21.722656 16.710938 22.125 C 16.617188 22.214844 16.507812 22.285156 16.382812 22.335938 C 16.003906 22.417969 15.644531 22.550781 15.304688 22.734375 C 14.585938 22.910156 13.851562 23.035156 13.101562 23.109375 C 13.0625 23.152344 13.015625 23.183594 12.960938 23.203125 C 12.320312 23.234375 11.679688 23.234375 11.039062 23.203125 C 10.984375 23.183594 10.9375 23.152344 10.898438 23.109375 C 10.148438 23.035156 9.414062 22.910156 8.695312 22.734375 C 8.355469 22.550781 7.996094 22.417969 7.617188 22.335938 C 7.226562 22.113281 6.820312 21.917969 6.398438 21.75 C 5.992188 21.5 5.601562 21.226562 5.226562 20.929688 C 5.03125 20.773438 4.84375 20.609375 4.664062 20.4375 C 4.621094 20.414062 4.574219 20.40625 4.523438 20.414062 C 4.535156 20.359375 4.519531 20.3125 4.476562 20.273438 C 4.195312 20.054688 3.945312 19.804688 3.726562 19.523438 C 3.6875 19.480469 3.640625 19.464844 3.585938 19.476562 C 3.59375 19.425781 3.585938 19.378906 3.5625 19.335938 C 2.839844 18.558594 2.277344 17.683594 1.875 16.710938 C 1.785156 16.617188 1.714844 16.507812 1.664062 16.382812 C 1.582031 16.003906 1.449219 15.644531 1.265625 15.304688 C 1.089844 14.585938 0.964844 13.851562 0.890625 13.101562 C 0.847656 13.0625 0.816406 13.015625 0.796875 12.960938 C 0.765625 12.320312 0.765625 11.679688 0.796875 11.039062 C 0.816406 10.984375 0.847656 10.9375 0.890625 10.898438 C 0.964844 10.148438 1.089844 9.414062 1.265625 8.695312 C 1.449219 8.355469 1.582031 7.996094 1.664062 7.617188 C 1.886719 7.226562 2.082031 6.820312 2.25 6.398438 C 2.5 5.992188 2.773438 5.601562 3.070312 5.226562 C 3.226562 5.03125 3.390625 4.84375 3.5625 4.664062 C 3.585938 4.621094 3.59375 4.574219 3.585938 4.523438 C 3.640625 4.535156 3.6875 4.519531 3.726562 4.476562 C 3.945312 4.195312 4.195312 3.945312 4.476562 3.726562 C 4.519531 3.6875 4.535156 3.640625 4.523438 3.585938 C 4.574219 3.59375 4.621094 3.585938 4.664062 3.5625 C 5.441406 2.839844 6.316406 2.277344 7.289062 1.875 C 7.382812 1.785156 7.492188 1.714844 7.617188 1.664062 C 8.09375 1.519531 8.5625 1.355469 9.023438 1.171875 C 9.398438 1.109375 9.773438 1.03125 10.148438 0.9375 C 10.398438 0.921875 10.648438 0.90625 10.898438 0.890625 C 10.949219 0.851562 10.996094 0.8125 11.039062 0.773438 Z M 5.320312 8.835938 C 5.617188 8.828125 5.914062 8.835938 6.210938 8.859375 C 7.234375 10.382812 8.257812 11.90625 9.28125 13.429688 C 9.304688 11.898438 9.3125 10.367188 9.304688 8.835938 C 9.585938 8.835938 9.867188 8.835938 10.148438 8.835938 C 10.148438 10.851562 10.148438 12.867188 10.148438 14.882812 C 9.851562 14.890625 9.554688 14.882812 9.257812 14.859375 C 8.234375 13.335938 7.210938 11.8125 6.1875 10.289062 C 6.164062 11.820312 6.15625 13.351562 6.164062 14.882812 C 5.882812 14.882812 5.601562 14.882812 5.320312 14.882812 C 5.320312 12.867188 5.320312 10.851562 5.320312 8.835938 Z M 11.460938 8.835938 C 12.929688 8.835938 14.398438 8.835938 15.867188 8.835938 C 15.867188 9.070312 15.867188 9.304688 15.867188 9.539062 C 14.679688 9.539062 13.492188 9.539062 12.304688 9.539062 C 12.304688 10.164062 12.304688 10.789062 12.304688 11.414062 C 13.414062 11.414062 14.523438 11.414062 15.632812 11.414062 C 15.632812 11.648438 15.632812 11.882812 15.632812 12.117188 C 14.523438 12.117188 13.414062 12.117188 12.304688 12.117188 C 12.304688 12.804688 12.304688 13.492188 12.304688 14.179688 C 13.539062 14.179688 14.773438 14.179688 16.007812 14.179688 C 16.007812 14.414062 16.007812 14.648438 16.007812 14.882812 C 14.492188 14.882812 12.976562 14.882812 11.460938 14.882812 C 11.460938 12.867188 11.460938 10.851562 11.460938 8.835938 Z M 16.617188 8.835938 C 18.226562 8.835938 19.835938 8.835938 21.445312 8.835938 C 21.445312 9.070312 21.445312 9.304688 21.445312 9.539062 C 20.773438 9.539062 20.101562 9.539062 19.429688 9.539062 C 19.429688 11.320312 19.429688 13.101562 19.429688 14.882812 C 19.148438 14.882812 18.867188 14.882812 18.585938 14.882812 C 18.585938 13.101562 18.585938 11.320312 18.585938 9.539062 C 17.929688 9.539062 17.273438 9.539062 16.617188 9.539062 C 16.617188 9.304688 16.617188 9.070312 16.617188 8.835938 Z M 3.117188 14.039062 C 3.414062 14.039062 3.710938 14.039062 4.007812 14.039062 C 4.007812 14.320312 4.007812 14.601562 4.007812 14.882812 C 3.710938 14.882812 3.414062 14.882812 3.117188 14.882812 C 3.117188 14.601562 3.117188 14.320312 3.117188 14.039062 Z M 3.117188 14.039062 " />
    </g>
</svg>