<?xml version="1.0" encoding="UTF-8"?>
<svg stroke="currentColor"
     fill="currentColor"
     stroke-width="0"
     role="img"
     viewBox="0 0 24 24"
     height="1em"
     width="1em"
     xmlns="http://www.w3.org/2000/svg">
    <path style=" stroke:none;fill-rule:evenodd;fill-opacity:1;"
          d="M 11.507812 0.445312 C 11.96875 0.421875 12.421875 0.460938 12.867188 0.5625 C 13.414062 0.867188 13.976562 1.148438 14.554688 1.40625 C 14.632812 1.453125 14.695312 1.515625 14.742188 1.59375 C 15.101562 1.75 15.453125 1.929688 15.796875 2.132812 C 15.992188 2.171875 16.171875 2.273438 16.335938 2.4375 C 17.042969 2.707031 17.644531 3.121094 18.140625 3.679688 C 18.253906 3.953125 18.378906 4.21875 18.515625 4.476562 C 18.566406 6.085938 18.605469 7.695312 18.632812 9.304688 C 18.503906 9.75 18.339844 10.1875 18.140625 10.617188 C 17.707031 11.167969 17.152344 11.550781 16.476562 11.765625 C 16.375 11.816406 16.296875 11.886719 16.242188 11.976562 C 16.433594 12.179688 16.667969 12.3125 16.945312 12.375 C 17.226562 12.5625 17.507812 12.75 17.789062 12.9375 C 17.933594 13.09375 18.066406 13.257812 18.1875 13.429688 C 18.289062 13.683594 18.398438 13.933594 18.515625 14.179688 C 18.570312 15.054688 18.59375 15.929688 18.585938 16.804688 C 18.59375 17.695312 18.570312 18.585938 18.515625 19.476562 C 18.382812 19.714844 18.273438 19.964844 18.1875 20.226562 C 17.910156 20.597656 17.574219 20.902344 17.179688 21.140625 C 15.789062 21.824219 14.421875 22.550781 13.078125 23.320312 C 12.40625 23.542969 11.726562 23.566406 11.039062 23.390625 C 10.285156 23.019531 9.550781 22.613281 8.835938 22.171875 C 8.488281 21.996094 8.128906 21.839844 7.757812 21.703125 C 7.726562 21.65625 7.695312 21.609375 7.664062 21.5625 C 7.226562 21.371094 6.804688 21.152344 6.398438 20.90625 C 6.328125 20.765625 6.21875 20.664062 6.070312 20.601562 C 6.027344 20.5625 6.011719 20.515625 6.023438 20.460938 C 5.976562 20.460938 5.929688 20.460938 5.882812 20.460938 C 5.753906 20.195312 5.628906 19.921875 5.507812 19.640625 C 5.457031 19.421875 5.410156 19.203125 5.367188 18.984375 C 5.429688 17.546875 5.429688 16.109375 5.367188 14.671875 C 5.457031 13.707031 5.925781 12.988281 6.773438 12.515625 C 7.0625 12.394531 7.34375 12.261719 7.617188 12.117188 C 7.667969 12.074219 7.699219 12.019531 7.710938 11.953125 C 7.34375 11.742188 6.96875 11.539062 6.585938 11.34375 C 6.015625 10.941406 5.632812 10.402344 5.4375 9.726562 C 5.40625 8.007812 5.40625 6.289062 5.4375 4.570312 C 5.609375 3.875 5.992188 3.335938 6.585938 2.953125 C 8.050781 2.191406 9.503906 1.417969 10.945312 0.632812 C 11.140625 0.574219 11.328125 0.511719 11.507812 0.445312 Z M 11.789062 4.195312 C 12.152344 4.246094 12.511719 4.332031 12.867188 4.453125 C 13.367188 4.816406 13.898438 5.128906 14.460938 5.390625 C 14.511719 5.433594 14.566406 5.472656 14.625 5.507812 C 14.742188 5.660156 14.820312 5.832031 14.859375 6.023438 C 14.890625 6.773438 14.890625 7.523438 14.859375 8.273438 C 14.792969 8.449219 14.714844 8.621094 14.625 8.789062 C 14.128906 9.070312 13.636719 9.359375 13.148438 9.65625 C 12.800781 9.839844 12.441406 9.988281 12.070312 10.101562 C 11.863281 10.082031 11.660156 10.042969 11.460938 9.984375 C 10.800781 9.609375 10.128906 9.25 9.445312 8.90625 C 9.300781 8.730469 9.183594 8.535156 9.09375 8.320312 C 9.0625 7.539062 9.0625 6.757812 9.09375 5.976562 C 9.183594 5.738281 9.320312 5.527344 9.492188 5.34375 C 9.898438 5.15625 10.304688 4.96875 10.710938 4.78125 C 10.742188 4.734375 10.773438 4.6875 10.804688 4.640625 C 11.140625 4.488281 11.46875 4.339844 11.789062 4.195312 Z M 11.789062 13.851562 C 12.03125 13.851562 12.265625 13.890625 12.492188 13.96875 C 12.789062 14.125 13.070312 14.296875 13.335938 14.484375 C 13.777344 14.691406 14.207031 14.917969 14.625 15.164062 C 14.667969 15.285156 14.730469 15.394531 14.8125 15.492188 C 14.863281 15.941406 14.886719 16.394531 14.882812 16.851562 C 14.886719 17.292969 14.863281 17.730469 14.8125 18.164062 C 14.707031 18.316406 14.589844 18.457031 14.460938 18.585938 C 14.097656 18.796875 13.722656 18.984375 13.335938 19.148438 C 13.292969 19.1875 13.277344 19.234375 13.289062 19.289062 C 12.914062 19.410156 12.554688 19.566406 12.210938 19.757812 C 12.042969 19.753906 11.871094 19.746094 11.695312 19.734375 C 11.363281 19.558594 11.019531 19.410156 10.664062 19.289062 C 10.675781 19.234375 10.660156 19.1875 10.617188 19.148438 C 10.257812 18.984375 9.898438 18.820312 9.539062 18.65625 C 9.367188 18.523438 9.234375 18.359375 9.140625 18.164062 C 9.066406 17.324219 9.050781 16.480469 9.09375 15.632812 C 9.179688 15.375 9.328125 15.164062 9.539062 15 C 10.289062 14.601562 11.039062 14.21875 11.789062 13.851562 Z M 11.789062 13.851562 " />
</svg>