<?xml version="1.0" encoding="UTF-8"?>
<svg stroke="currentColor"
     fill="currentColor"
     stroke-width="0"
     role="img"
     viewBox="0 0 24 24"
     height="1em"
     width="1em"
     xmlns="http://www.w3.org/2000/svg">
    <path style=" stroke:none;fill-rule:evenodd;fill-opacity:1;"
          d="M 6.820312 4.945312 C 7.90625 4.824219 8.921875 5.035156 9.867188 5.578125 C 10.792969 6.222656 11.597656 6.996094 12.28125 7.898438 C 12.929688 6.9375 13.734375 6.132812 14.695312 5.484375 C 15.996094 4.78125 17.308594 4.765625 18.632812 5.4375 C 19.691406 6.089844 20.527344 6.957031 21.140625 8.039062 C 22.445312 10.484375 22.898438 13.078125 22.5 15.820312 C 21.847656 18.582031 20.152344 19.574219 17.414062 18.796875 C 16.917969 18.550781 16.472656 18.230469 16.078125 17.835938 C 15.679688 17.382812 15.304688 16.914062 14.953125 16.429688 C 13.933594 14.84375 12.949219 13.234375 12 11.601562 C 11.101562 13.261719 10.148438 14.886719 9.140625 16.476562 C 8.574219 17.339844 7.863281 18.066406 7.007812 18.65625 C 6.460938 18.949219 5.875 19.082031 5.25 19.054688 C 3.324219 19.011719 2.105469 18.058594 1.59375 16.195312 C 1.039062 13.132812 1.570312 10.273438 3.1875 7.617188 C 3.886719 6.542969 4.816406 5.738281 5.976562 5.203125 C 6.257812 5.101562 6.539062 5.015625 6.820312 4.945312 Z M 16.054688 6.773438 C 17.105469 6.6875 17.972656 7.046875 18.65625 7.851562 C 19.507812 8.945312 20.070312 10.179688 20.34375 11.554688 C 20.636719 12.910156 20.667969 14.269531 20.4375 15.632812 C 20.078125 16.648438 19.382812 16.984375 18.351562 16.640625 C 18.035156 16.417969 17.746094 16.160156 17.484375 15.867188 C 17.136719 15.410156 16.808594 14.941406 16.5 14.460938 C 15.453125 12.75 14.398438 11.046875 13.335938 9.351562 C 13.753906 8.65625 14.253906 8.023438 14.835938 7.453125 C 15.195312 7.140625 15.601562 6.914062 16.054688 6.773438 Z M 7.148438 7.242188 C 7.84375 7.1875 8.46875 7.367188 9.023438 7.78125 C 9.742188 8.414062 10.367188 9.125 10.898438 9.914062 C 10.148438 11.078125 9.40625 12.25 8.671875 13.429688 C 8.148438 14.226562 7.601562 15.007812 7.03125 15.773438 C 6.714844 16.167969 6.332031 16.472656 5.882812 16.6875 C 4.710938 16.910156 4 16.433594 3.75 15.257812 C 3.488281 12.878906 3.988281 10.675781 5.25 8.648438 C 5.71875 7.949219 6.351562 7.480469 7.148438 7.242188 Z M 7.148438 7.242188 " />
</svg>