<?xml version="1.0" encoding="UTF-8"?>
<svg stroke="currentColor"
     fill="currentColor"
     stroke-width="0"
     role="img"
     viewBox="0 0 24 24"
     height="1em"
     width="1em"
     xmlns="http://www.w3.org/2000/svg">
    <path style=" stroke:none;fill-rule:evenodd;fill-opacity:1;"
          d="M 11.132812 0.585938 C 11.664062 0.570312 12.195312 0.585938 12.726562 0.632812 C 12.800781 0.710938 12.894531 0.75 13.007812 0.75 C 17.230469 1.25 20.300781 3.414062 22.21875 7.242188 C 22.5625 8.058594 22.828125 8.886719 23.015625 9.726562 C 23.714844 13.996094 22.472656 17.589844 19.289062 20.507812 C 16.363281 22.886719 13.089844 23.683594 9.46875 22.898438 C 6.535156 22.222656 4.214844 20.628906 2.507812 18.117188 C 1.441406 16.421875 0.839844 14.578125 0.703125 12.585938 C 0.683594 12.566406 0.660156 12.550781 0.632812 12.539062 C 0.570312 12.148438 0.570312 11.757812 0.632812 11.367188 C 0.660156 11.355469 0.683594 11.339844 0.703125 11.320312 C 1.085938 6.933594 3.25 3.730469 7.195312 1.710938 C 8.453125 1.128906 9.765625 0.800781 11.132812 0.726562 C 11.132812 0.679688 11.132812 0.632812 11.132812 0.585938 Z M 17.179688 4.757812 C 17.621094 4.734375 18.011719 4.859375 18.351562 5.132812 C 18.40625 5.207031 18.414062 5.285156 18.375 5.367188 C 17.878906 5.84375 17.402344 6.335938 16.945312 6.84375 C 17.03125 6.960938 17.117188 7.078125 17.203125 7.195312 C 17.5 7.445312 17.78125 7.710938 18.046875 7.992188 C 18.078125 8.054688 18.078125 8.117188 18.046875 8.179688 C 17.480469 8.386719 16.925781 8.363281 16.382812 8.109375 C 15.492188 7.402344 15.304688 6.550781 15.820312 5.554688 C 16.175781 5.101562 16.628906 4.835938 17.179688 4.757812 Z M 18.585938 5.367188 C 19.171875 6.003906 19.257812 6.707031 18.84375 7.476562 C 18.6875 7.695312 18.5 7.882812 18.28125 8.039062 C 17.851562 7.671875 17.453125 7.273438 17.085938 6.84375 C 17.550781 6.308594 18.050781 5.816406 18.585938 5.367188 Z M 14.648438 7.429688 C 15.082031 7.347656 15.457031 7.449219 15.773438 7.734375 C 15.585938 7.835938 15.398438 7.9375 15.210938 8.039062 C 13.832031 9.441406 12.441406 10.839844 11.039062 12.234375 C 10.992188 12.265625 10.945312 12.265625 10.898438 12.234375 C 10.632812 11.957031 10.359375 11.683594 10.078125 11.414062 C 10.039062 11.332031 10.046875 11.253906 10.101562 11.179688 C 11.023438 10.289062 11.960938 9.414062 12.914062 8.554688 C 13.457031 8.109375 14.035156 7.734375 14.648438 7.429688 Z M 15.492188 7.945312 C 16.007812 7.867188 16.320312 8.078125 16.429688 8.578125 C 16.410156 8.726562 16.355469 8.859375 16.265625 8.976562 C 14.769531 10.292969 13.277344 11.613281 11.789062 12.9375 C 11.726562 12.96875 11.664062 12.96875 11.601562 12.9375 C 11.429688 12.75 11.257812 12.5625 11.085938 12.375 C 12.535156 10.871094 14.003906 9.394531 15.492188 7.945312 Z M 16.289062 9.070312 C 16.375 9.058594 16.4375 9.089844 16.476562 9.164062 C 16.410156 9.367188 16.339844 9.570312 16.265625 9.773438 C 15.988281 10.28125 15.675781 10.765625 15.328125 11.226562 C 14.46875 12.164062 13.578125 13.070312 12.65625 13.945312 C 12.335938 13.6875 12.046875 13.398438 11.789062 13.078125 C 13.285156 11.726562 14.785156 10.390625 16.289062 9.070312 Z M 9.773438 11.460938 C 9.851562 11.453125 9.929688 11.460938 10.007812 11.484375 C 10.277344 11.75 10.519531 12.023438 10.734375 12.304688 C 10.695312 12.34375 10.65625 12.382812 10.617188 12.421875 C 10.042969 12.488281 9.480469 12.605469 8.929688 12.773438 C 8.871094 12.738281 8.808594 12.722656 8.742188 12.726562 C 8.730469 12.644531 8.746094 12.566406 8.789062 12.492188 C 9.121094 12.144531 9.449219 11.800781 9.773438 11.460938 Z M 10.898438 12.492188 C 11.121094 12.613281 11.308594 12.777344 11.460938 12.984375 C 11.425781 13.042969 11.378906 13.089844 11.320312 13.125 C 11.09375 13.140625 10.875 13.179688 10.664062 13.242188 C 10.664062 13.386719 10.710938 13.410156 10.804688 13.3125 C 11.105469 13.269531 11.402344 13.222656 11.695312 13.171875 C 11.921875 13.429688 12.164062 13.671875 12.421875 13.898438 C 12.460938 13.996094 12.453125 14.089844 12.398438 14.179688 C 10.917969 15.375 9.324219 16.375 7.617188 17.179688 C 7.628906 17.3125 7.628906 17.4375 7.617188 17.554688 C 7.6875 17.769531 7.75 17.988281 7.804688 18.210938 C 7.777344 18.375 7.683594 18.429688 7.523438 18.375 C 7.140625 17.992188 6.757812 17.609375 6.375 17.226562 C 6.335938 17.144531 6.34375 17.066406 6.398438 16.992188 C 7.5625 15.820312 8.734375 14.65625 9.914062 13.5 C 10.15625 13.480469 10.390625 13.441406 10.617188 13.382812 C 10.617188 13.335938 10.617188 13.289062 10.617188 13.242188 C 10.550781 13.238281 10.488281 13.253906 10.429688 13.289062 C 10.324219 13.261719 10.285156 13.199219 10.3125 13.101562 C 10.5 12.890625 10.695312 12.6875 10.898438 12.492188 Z M 6.164062 17.226562 C 6.597656 17.582031 7.003906 17.972656 7.382812 18.398438 C 7.371094 18.425781 7.355469 18.449219 7.335938 18.46875 C 7.039062 18.5 6.742188 18.5 6.445312 18.46875 C 6.070312 18.421875 5.695312 18.382812 5.320312 18.351562 C 5.257812 18.300781 5.234375 18.238281 5.25 18.164062 C 5.5625 17.859375 5.867188 17.546875 6.164062 17.226562 Z M 6.164062 17.226562 " />
    <path style=" stroke:none;fill-rule:evenodd;fill-opacity:1;"
          d="M 18.398438 6.257812 C 18.515625 6.25 18.601562 6.296875 18.65625 6.398438 C 18.691406 6.625 18.667969 6.84375 18.585938 7.054688 C 18.492188 7.054688 18.398438 7.054688 18.304688 7.054688 C 18.390625 6.792969 18.421875 6.527344 18.398438 6.257812 Z M 18.398438 6.257812 " />
</svg>