<?xml version="1.0" encoding="UTF-8"?>
<svg stroke="currentColor"
     fill="currentColor"
     stroke-width="0"
     role="img"
     viewBox="0 0 24 24"
     height="1em"
     width="1em"
     xmlns="http://www.w3.org/2000/svg">
    <g id="surface1">
        <path style=" stroke:none;fill-rule:nonzero;fill-opacity:1;"
              d="M 9.785156 17.457031 L 11.128906 14.183594 L 14.148438 14.183594 C 15.347656 14.183594 16.332031 13.203125 16.332031 12.003906 C 16.332031 10.800781 15.347656 9.820312 14.148438 9.820312 L 4.328125 9.820312 L 9.785156 4.363281 L 9.785156 6.546875 L 14.148438 6.546875 C 17.167969 6.546875 19.601562 8.984375 19.601562 12.003906 C 19.601562 14.949219 17.277344 17.3125 14.402344 17.421875 L 18.839844 21.859375 C 21.96875 19.675781 24.003906 16.074219 24.003906 12.003906 C 24.003906 5.382812 18.621094 0 12.003906 0 C 5.382812 0 0 5.382812 0 12.003906 C 0 18.621094 5.382812 24.003906 12.003906 24.003906 C 13.3125 24.003906 14.585938 23.785156 15.75 23.386719 Z M 9.785156 17.457031 " />
    </g>
</svg>