<?xml version="1.0" encoding="UTF-8"?>
<svg stroke="currentColor"
     fill="currentColor"
     stroke-width="0"
     role="img"
     viewBox="0 0 24 24"
     height="1em"
     width="1em"
     xmlns="http://www.w3.org/2000/svg">
    <path style=" stroke:none;fill-rule:evenodd;fill-opacity:1;"
          d="M 13.195312 5.929688 C 13.179688 5.855469 13.132812 5.824219 13.054688 5.835938 C 12.699219 5.613281 12.332031 5.410156 11.953125 5.226562 C 11.589844 5.4375 11.222656 5.640625 10.851562 5.835938 C 10.773438 5.824219 10.726562 5.855469 10.710938 5.929688 C 7.777344 7.609375 4.847656 9.296875 1.921875 10.992188 C 1.890625 9.382812 1.890625 7.773438 1.921875 6.164062 C 5.242188 4.230469 8.570312 2.292969 11.90625 0.351562 C 14.386719 1.789062 16.863281 3.21875 19.335938 4.640625 C 19.46875 4.710938 19.585938 4.796875 19.6875 4.898438 C 19.703125 4.882812 19.71875 4.867188 19.734375 4.851562 C 20.492188 5.328125 21.257812 5.796875 22.03125 6.257812 C 22.0625 7.820312 22.0625 9.382812 22.03125 10.945312 C 22.015625 10.859375 21.984375 10.84375 21.9375 10.898438 C 21.230469 10.527344 20.542969 10.121094 19.875 9.679688 C 19.859375 9.695312 19.84375 9.710938 19.828125 9.726562 C 17.875 8.613281 15.929688 7.480469 13.992188 6.328125 C 13.710938 6.21875 13.445312 6.085938 13.195312 5.929688 Z M 13.195312 5.929688 " />
    <path style=" stroke:none;fill-rule:evenodd;fill-opacity:1;"
          d="M 1.898438 12.960938 C 5.285156 14.894531 8.644531 16.832031 11.976562 18.773438 C 15.316406 16.878906 18.667969 14.957031 22.03125 13.007812 C 22.070312 14.585938 22.0625 16.164062 22.007812 17.742188 C 19.253906 19.320312 16.519531 20.921875 13.804688 22.546875 C 13.207031 22.855469 12.613281 23.175781 12.023438 23.507812 C 10.691406 22.835938 9.410156 22.109375 8.179688 21.328125 C 6.066406 20.144531 3.980469 18.949219 1.921875 17.742188 C 1.898438 16.148438 1.890625 14.554688 1.898438 12.960938 Z M 1.898438 12.960938 " />
    <path style=" stroke:none;fill-rule:evenodd;fill-opacity:1;"
          d="M 11.882812 7.101562 C 12.609375 7.449219 13.3125 7.847656 13.992188 8.296875 C 15.179688 8.953125 16.367188 9.609375 17.554688 10.265625 C 18.484375 10.863281 19.4375 11.425781 20.414062 11.953125 C 20.363281 12.015625 20.308594 12.070312 20.25 12.117188 C 19.101562 12.742188 17.953125 13.375 16.804688 14.015625 C 16.042969 14.546875 15.246094 15.015625 14.414062 15.421875 C 13.613281 15.894531 12.816406 16.378906 12.023438 16.875 C 11.554688 16.660156 11.101562 16.394531 10.664062 16.078125 C 8.863281 15.035156 7.050781 14.019531 5.226562 13.03125 C 4.992188 12.898438 4.773438 12.742188 4.570312 12.5625 C 4.308594 12.425781 4.042969 12.300781 3.773438 12.1875 C 3.667969 12.136719 3.574219 12.066406 3.492188 11.976562 C 3.5625 11.929688 3.625 11.875 3.679688 11.8125 C 3.972656 11.699219 4.253906 11.558594 4.523438 11.390625 C 4.632812 11.332031 4.726562 11.253906 4.804688 11.15625 C 5.214844 10.960938 5.621094 10.757812 6.023438 10.546875 C 6.164062 10.4375 6.304688 10.328125 6.445312 10.21875 C 8.296875 9.238281 10.109375 8.199219 11.882812 7.101562 Z M 11.882812 7.101562 " />
</svg>