<?xml version="1.0" encoding="UTF-8"?>
<svg stroke="currentColor"
     fill="currentColor"
     stroke-width="0"
     role="img"
     viewBox="0 0 24 24"
     height="1em"
     width="1em"
     xmlns="http://www.w3.org/2000/svg">
    <path style=" stroke:none;fill-rule:evenodd;fill-opacity:1;"
          d="M 4.382812 1.242188 C 4.695312 1.21875 4.992188 1.273438 5.273438 1.40625 C 7.410156 2.464844 9.550781 3.511719 11.695312 4.546875 C 9.394531 5.65625 7.089844 6.757812 4.78125 7.851562 C 4.453125 6.167969 4.15625 4.480469 3.890625 2.789062 C 3.871094 2.695312 3.832031 2.609375 3.773438 2.53125 C 3.785156 2.167969 3.855469 1.816406 3.984375 1.476562 C 4.101562 1.367188 4.234375 1.289062 4.382812 1.242188 Z M 4.382812 1.242188 " />
    <path style=" stroke:none;fill-rule:evenodd;fill-opacity:1;"
          d="M 19.054688 1.242188 C 19.425781 1.179688 19.722656 1.296875 19.945312 1.59375 C 20.007812 1.808594 20.054688 2.027344 20.085938 2.25 C 19.769531 4.117188 19.457031 5.984375 19.148438 7.851562 C 19.085938 7.859375 19.023438 7.851562 18.960938 7.828125 C 16.667969 6.738281 14.371094 5.660156 12.070312 4.59375 C 14.382812 3.441406 16.710938 2.324219 19.054688 1.242188 Z M 19.054688 1.242188 " />
    <path style=" stroke:none;fill-rule:evenodd;fill-opacity:1;"
          d="M 11.601562 4.804688 C 11.648438 4.804688 11.695312 4.804688 11.742188 4.804688 C 11.734375 6.460938 11.742188 8.117188 11.765625 9.773438 C 11.777344 9.902344 11.800781 10.027344 11.835938 10.148438 C 11.78125 12.070312 11.773438 13.992188 11.8125 15.914062 C 11.828125 16.054688 11.851562 16.195312 11.882812 16.335938 C 11.84375 17.554688 11.820312 18.773438 11.8125 19.992188 C 11.554688 20.25 11.296875 20.507812 11.039062 20.765625 C 10.996094 20.789062 10.949219 20.796875 10.898438 20.789062 C 10.894531 20.941406 10.816406 21.027344 10.664062 21.046875 C 10.648438 21.1875 10.570312 21.265625 10.429688 21.28125 C 10.394531 21.433594 10.300781 21.535156 10.148438 21.585938 C 10.042969 21.71875 9.933594 21.851562 9.820312 21.984375 C 9.683594 21.988281 9.621094 22.058594 9.632812 22.195312 C 9.445312 22.226562 9.335938 22.335938 9.304688 22.523438 C 9.253906 22.515625 9.207031 22.523438 9.164062 22.546875 C 9.046875 22.695312 8.914062 22.828125 8.765625 22.945312 C 8.742188 22.988281 8.734375 23.035156 8.742188 23.085938 C 8.539062 23.261719 8.304688 23.394531 8.039062 23.484375 C 7.871094 23.492188 7.707031 23.515625 7.546875 23.554688 C 7.28125 23.417969 7.023438 23.277344 6.773438 23.132812 C 6.78125 23.082031 6.773438 23.035156 6.75 22.992188 C 6.546875 22.773438 6.390625 22.523438 6.28125 22.242188 C 4.964844 19.011719 3.621094 15.792969 2.25 12.585938 C 1.6875 11.269531 1.929688 10.121094 2.976562 9.140625 C 3.28125 8.914062 3.59375 8.695312 3.914062 8.484375 C 6.480469 7.269531 9.042969 6.042969 11.601562 4.804688 Z M 11.601562 4.804688 " />
    <path style=" stroke:none;fill-rule:evenodd;fill-opacity:1;"
          d="M 12.070312 4.804688 C 14.785156 6.09375 17.503906 7.367188 20.226562 8.625 C 20.359375 8.761719 20.515625 8.871094 20.695312 8.953125 C 20.878906 9.191406 21.089844 9.402344 21.328125 9.585938 C 21.90625 10.382812 22.0625 11.257812 21.796875 12.210938 C 20.355469 15.648438 18.917969 19.085938 17.484375 22.523438 C 17.277344 23.007812 16.925781 23.328125 16.429688 23.484375 C 15.976562 23.578125 15.585938 23.460938 15.257812 23.132812 C 14.191406 22.078125 13.136719 21.015625 12.09375 19.945312 C 12.070312 14.898438 12.0625 9.851562 12.070312 4.804688 Z M 12.070312 4.804688 " />
</svg>