<?xml version="1.0" encoding="UTF-8"?>
<svg stroke="currentColor"
     fill="currentColor"
     stroke-width="0"
     role="img"
     viewBox="0 0 27 27"
     height="1em"
     width="1em"
     xmlns="http://www.w3.org/2000/svg">
    <path style=" stroke:none;fill-rule:evenodd;fill-opacity:1;"
          d="M 12 -0.0273438 C 12.195312 -0.0273438 12.386719 -0.0273438 12.582031 -0.0273438 C 12.929688 0.113281 13.28125 0.273438 13.628906 0.449219 C 16.882812 2.25 20.136719 4.050781 23.390625 5.851562 C 23.617188 6.003906 23.808594 6.179688 23.972656 6.382812 C 23.972656 6.515625 23.972656 6.648438 23.972656 6.777344 C 23.910156 6.941406 23.792969 7.0625 23.621094 7.144531 C 21.558594 8.285156 19.503906 9.4375 17.460938 10.601562 C 17.875 11.242188 18.109375 11.925781 18.160156 12.65625 C 18.222656 12.730469 18.261719 12.816406 18.277344 12.910156 C 18.269531 13.046875 18.25 13.1875 18.21875 13.332031 C 18.371094 13.5 18.371094 13.667969 18.21875 13.835938 C 18.292969 13.976562 18.273438 14.109375 18.160156 14.230469 C 18.191406 14.273438 18.210938 14.320312 18.21875 14.371094 C 18.078125 15.082031 17.855469 15.757812 17.550781 16.398438 C 19.617188 17.589844 21.699219 18.761719 23.796875 19.914062 C 23.9375 20.179688 23.949219 20.449219 23.824219 20.726562 C 20.335938 22.695312 16.835938 24.652344 13.335938 26.605469 C 13.054688 26.761719 12.761719 26.882812 12.464844 26.972656 C 12.328125 26.972656 12.195312 26.972656 12.058594 26.972656 C 11.695312 26.882812 11.347656 26.742188 11.011719 26.550781 C 7.546875 24.648438 4.097656 22.714844 0.667969 20.757812 C 0.550781 20.644531 0.4375 20.53125 0.320312 20.417969 C 2.734375 19 5.167969 17.601562 7.613281 16.226562 C 8.042969 16.703125 8.5 17.160156 8.976562 17.605469 C 11.136719 19.035156 13.304688 19.054688 15.488281 17.664062 C 17.433594 16.039062 18.023438 14.042969 17.257812 11.671875 C 17.121094 11.40625 16.988281 11.144531 16.851562 10.882812 C 15.46875 11.679688 14.066406 12.441406 12.640625 13.164062 C 12.160156 13.253906 11.714844 13.179688 11.300781 12.9375 C 10.058594 12.222656 8.800781 11.539062 7.527344 10.882812 C 7.503906 10.835938 7.46875 10.820312 7.410156 10.828125 C 7.410156 10.789062 7.390625 10.773438 7.351562 10.773438 C 7.332031 10.726562 7.292969 10.707031 7.234375 10.714844 C 7.214844 10.667969 7.175781 10.648438 7.117188 10.660156 C 7.117188 10.621094 7.097656 10.601562 7.058594 10.601562 C 7.039062 10.554688 7.003906 10.539062 6.945312 10.546875 C 6.925781 10.5 6.886719 10.480469 6.828125 10.492188 C 6.808594 10.445312 6.769531 10.425781 6.710938 10.433594 C 6.710938 10.398438 6.691406 10.378906 6.652344 10.378906 C 6.632812 10.332031 6.59375 10.3125 6.539062 10.320312 C 6.519531 10.273438 6.480469 10.257812 6.421875 10.265625 C 6.394531 10.1875 6.335938 10.148438 6.246094 10.152344 C 6.226562 10.105469 6.1875 10.085938 6.128906 10.097656 C 6.101562 10.019531 6.046875 9.980469 5.957031 9.984375 C 5.9375 9.9375 5.898438 9.917969 5.839844 9.929688 C 5.820312 9.882812 5.78125 9.863281 5.722656 9.871094 C 5.695312 9.792969 5.636719 9.753906 5.550781 9.757812 C 5.53125 9.710938 5.492188 9.695312 5.433594 9.703125 C 5.40625 9.625 5.347656 9.585938 5.257812 9.589844 C 5.238281 9.542969 5.199219 9.523438 5.144531 9.535156 C 5.121094 9.488281 5.085938 9.46875 5.027344 9.476562 C 5 9.398438 4.941406 9.363281 4.851562 9.367188 C 4.832031 9.320312 4.792969 9.300781 4.734375 9.308594 C 4.707031 9.230469 4.652344 9.191406 4.5625 9.195312 C 4.542969 9.148438 4.503906 9.132812 4.445312 9.140625 C 4.425781 9.09375 4.386719 9.074219 4.328125 9.085938 C 4.300781 9.003906 4.242188 8.96875 4.15625 8.972656 C 4.136719 8.925781 4.097656 8.90625 4.039062 8.914062 C 3.972656 8.816406 3.875 8.761719 3.75 8.746094 C 3.726562 8.699219 3.691406 8.679688 3.632812 8.691406 C 3.605469 8.613281 3.546875 8.574219 3.457031 8.578125 C 3.4375 8.53125 3.398438 8.511719 3.339844 8.523438 C 3.273438 8.421875 3.175781 8.367188 3.050781 8.351562 C 3.03125 8.304688 2.992188 8.289062 2.933594 8.296875 C 2.90625 8.21875 2.847656 8.179688 2.761719 8.183594 C 2.742188 8.136719 2.703125 8.117188 2.644531 8.128906 C 2.578125 8.03125 2.480469 7.972656 2.351562 7.960938 C 2.332031 7.914062 2.292969 7.894531 2.238281 7.902344 C 2.167969 7.804688 2.074219 7.75 1.945312 7.734375 C 1.878906 7.636719 1.78125 7.578125 1.65625 7.566406 C 1.636719 7.519531 1.597656 7.5 1.539062 7.507812 C 1.472656 7.410156 1.375 7.355469 1.25 7.339844 C 1.183594 7.242188 1.085938 7.1875 0.957031 7.171875 C 0.9375 7.125 0.898438 7.105469 0.84375 7.117188 C 0.773438 7.015625 0.679688 6.960938 0.550781 6.945312 C 0.449219 6.851562 0.332031 6.765625 0.203125 6.695312 C 0.480469 6.371094 0.808594 6.105469 1.191406 5.90625 C 4.648438 3.960938 8.117188 2.03125 11.59375 0.113281 C 11.738281 0.0742188 11.875 0.0273438 12 -0.0273438 Z M 12 -0.0273438 " />
    <path style=" stroke:none;fill-rule:evenodd;fill-opacity:1;"
          d="M 0.550781 6.945312 C 0.621094 7.046875 0.714844 7.101562 0.84375 7.117188 C 0.863281 7.164062 0.902344 7.179688 0.957031 7.171875 C 1.027344 7.269531 1.125 7.328125 1.25 7.339844 C 1.316406 7.4375 1.414062 7.496094 1.539062 7.507812 C 1.558594 7.554688 1.597656 7.574219 1.65625 7.566406 C 1.722656 7.664062 1.820312 7.71875 1.945312 7.734375 C 2.015625 7.832031 2.109375 7.890625 2.238281 7.902344 C 2.257812 7.949219 2.296875 7.96875 2.351562 7.960938 C 2.421875 8.058594 2.519531 8.113281 2.644531 8.128906 C 2.664062 8.175781 2.703125 8.195312 2.761719 8.183594 C 2.789062 8.261719 2.847656 8.300781 2.933594 8.296875 C 2.953125 8.34375 2.992188 8.363281 3.050781 8.351562 C 3.117188 8.453125 3.214844 8.507812 3.339844 8.523438 C 3.359375 8.570312 3.398438 8.585938 3.457031 8.578125 C 3.484375 8.65625 3.542969 8.695312 3.632812 8.691406 C 3.652344 8.738281 3.691406 8.757812 3.75 8.746094 C 3.816406 8.84375 3.914062 8.902344 4.039062 8.914062 C 4.058594 8.960938 4.097656 8.980469 4.15625 8.972656 C 4.183594 9.050781 4.242188 9.089844 4.328125 9.085938 C 4.347656 9.132812 4.386719 9.148438 4.445312 9.140625 C 4.464844 9.1875 4.503906 9.207031 4.5625 9.195312 C 4.589844 9.277344 4.648438 9.3125 4.734375 9.308594 C 4.757812 9.355469 4.792969 9.375 4.851562 9.367188 C 4.878906 9.445312 4.9375 9.480469 5.027344 9.476562 C 5.046875 9.523438 5.085938 9.542969 5.144531 9.535156 C 5.164062 9.582031 5.203125 9.601562 5.257812 9.589844 C 5.285156 9.667969 5.34375 9.707031 5.433594 9.703125 C 5.453125 9.75 5.492188 9.769531 5.550781 9.757812 C 5.578125 9.839844 5.636719 9.875 5.722656 9.871094 C 5.742188 9.917969 5.78125 9.9375 5.839844 9.929688 C 5.859375 9.976562 5.898438 9.992188 5.957031 9.984375 C 5.984375 10.0625 6.042969 10.101562 6.128906 10.097656 C 6.152344 10.144531 6.1875 10.164062 6.246094 10.152344 C 6.273438 10.230469 6.332031 10.269531 6.421875 10.265625 C 6.441406 10.3125 6.480469 10.332031 6.539062 10.320312 C 6.558594 10.367188 6.597656 10.386719 6.652344 10.378906 C 6.691406 10.378906 6.710938 10.398438 6.710938 10.433594 C 6.730469 10.480469 6.769531 10.5 6.828125 10.492188 C 6.847656 10.539062 6.886719 10.554688 6.945312 10.546875 C 6.964844 10.59375 7.003906 10.613281 7.058594 10.601562 C 7.097656 10.601562 7.117188 10.621094 7.117188 10.660156 C 7.136719 10.707031 7.175781 10.726562 7.234375 10.714844 C 7.253906 10.761719 7.292969 10.78125 7.351562 10.773438 C 7.390625 10.773438 7.410156 10.789062 7.410156 10.828125 C 7.429688 10.875 7.46875 10.894531 7.527344 10.882812 C 6.617188 12.632812 6.636719 14.378906 7.582031 16.117188 C 5.144531 17.484375 2.703125 18.851562 0.261719 20.222656 C 0.121094 20.054688 0.0234375 19.867188 -0.0273438 19.660156 C -0.0273438 15.460938 -0.0273438 11.257812 -0.0273438 7.058594 C 0.0195312 6.964844 0.0742188 6.871094 0.144531 6.777344 C 0.273438 6.851562 0.410156 6.90625 0.550781 6.945312 Z M 0.550781 6.945312 " />
</svg>