<?xml version="1.0" encoding="UTF-8"?>
<svg stroke="currentColor"
     fill="currentColor"
     stroke-width="0"
     role="img"
     viewBox="0 0 24 24"
     height="1em"
     width="1em"
     xmlns="http://www.w3.org/2000/svg">
    <g id="surface1">
        <path style=" stroke:none;fill-rule:evenodd;fill-opacity:1;"
              d="M 0.304688 0.304688 C 8.085938 0.304688 15.867188 0.304688 23.648438 0.304688 C 23.648438 8.085938 23.648438 15.867188 23.648438 23.648438 C 15.867188 23.648438 8.085938 23.648438 0.304688 23.648438 C 0.304688 15.867188 0.304688 8.085938 0.304688 0.304688 Z M 3.773438 14.414062 C 4.113281 14.398438 4.449219 14.414062 4.78125 14.460938 C 5.648438 16.566406 6.5 18.675781 7.335938 20.789062 C 6.996094 20.804688 6.660156 20.789062 6.328125 20.742188 C 6.09375 20.121094 5.851562 19.503906 5.601562 18.890625 C 4.726562 18.851562 3.851562 18.859375 2.976562 18.914062 C 2.730469 19.53125 2.511719 20.15625 2.320312 20.789062 C 1.992188 20.796875 1.664062 20.789062 1.335938 20.765625 C 2.164062 18.652344 2.976562 16.535156 3.773438 14.414062 Z M 7.992188 14.414062 C 9.304688 14.394531 10.617188 14.417969 11.929688 14.484375 C 12.511719 14.644531 12.894531 15.011719 13.078125 15.585938 C 13.300781 16.882812 12.761719 17.65625 11.460938 17.90625 C 11.824219 18.113281 12.128906 18.386719 12.375 18.726562 C 12.804688 19.398438 13.234375 20.070312 13.664062 20.742188 C 13.289062 20.796875 12.914062 20.804688 12.539062 20.765625 C 12.109375 20.058594 11.664062 19.363281 11.203125 18.679688 C 10.996094 18.347656 10.707031 18.121094 10.335938 18 C 9.851562 17.976562 9.367188 17.96875 8.882812 17.976562 C 8.882812 18.914062 8.882812 19.851562 8.882812 20.789062 C 8.585938 20.789062 8.289062 20.789062 7.992188 20.789062 C 7.992188 18.664062 7.992188 16.539062 7.992188 14.414062 Z M 16.804688 14.414062 C 17.085938 14.414062 17.367188 14.414062 17.648438 14.414062 C 17.648438 14.710938 17.648438 15.007812 17.648438 15.304688 C 17.367188 15.304688 17.085938 15.304688 16.804688 15.304688 C 16.804688 15.007812 16.804688 14.710938 16.804688 14.414062 Z M 19.804688 16.054688 C 20.445312 15.976562 21.054688 16.078125 21.632812 16.359375 C 21.925781 16.585938 22.097656 16.882812 22.148438 17.25 C 22.136719 17.3125 22.105469 17.359375 22.054688 17.390625 C 21.820312 17.433594 21.585938 17.457031 21.351562 17.460938 C 21.304688 17.09375 21.101562 16.867188 20.742188 16.78125 C 20.410156 16.738281 20.082031 16.753906 19.757812 16.828125 C 19.339844 17.058594 19.292969 17.339844 19.617188 17.671875 C 20.253906 17.882812 20.894531 18.085938 21.539062 18.28125 C 22.171875 18.550781 22.429688 19.027344 22.3125 19.710938 C 22.101562 20.355469 21.65625 20.738281 20.976562 20.859375 C 20.433594 20.925781 19.902344 20.878906 19.382812 20.71875 C 18.859375 20.445312 18.546875 20.015625 18.445312 19.429688 C 18.71875 19.339844 19 19.292969 19.289062 19.289062 C 19.363281 19.730469 19.613281 20.019531 20.039062 20.15625 C 20.371094 20.199219 20.699219 20.183594 21.023438 20.109375 C 21.507812 19.878906 21.601562 19.550781 21.304688 19.125 C 20.703125 18.914062 20.09375 18.726562 19.476562 18.5625 C 18.648438 18.203125 18.40625 17.601562 18.75 16.757812 C 19.015625 16.386719 19.367188 16.152344 19.804688 16.054688 Z M 16.804688 16.148438 C 17.085938 16.148438 17.367188 16.148438 17.648438 16.148438 C 17.65625 17.867188 17.648438 19.585938 17.625 21.304688 C 17.582031 22.488281 16.980469 22.925781 15.820312 22.617188 C 15.84375 22.394531 15.890625 22.175781 15.960938 21.960938 C 16.128906 21.949219 16.300781 21.941406 16.476562 21.9375 C 16.703125 21.855469 16.804688 21.691406 16.78125 21.445312 C 16.804688 19.679688 16.8125 17.914062 16.804688 16.148438 Z M 14.554688 19.898438 C 14.867188 19.898438 15.179688 19.898438 15.492188 19.898438 C 15.492188 20.195312 15.492188 20.492188 15.492188 20.789062 C 15.179688 20.789062 14.867188 20.789062 14.554688 20.789062 C 14.554688 20.492188 14.554688 20.195312 14.554688 19.898438 Z M 14.554688 19.898438 " />
        <path style=" stroke:none;fill-rule:evenodd;fill-opacity:1;"
              d="M 8.882812 15.164062 C 9.761719 15.144531 10.636719 15.167969 11.507812 15.234375 C 12.242188 15.542969 12.421875 16.050781 12.046875 16.757812 C 11.671875 17.105469 11.226562 17.253906 10.710938 17.203125 C 10.101562 17.226562 9.492188 17.234375 8.882812 17.226562 C 8.882812 16.539062 8.882812 15.851562 8.882812 15.164062 Z M 8.882812 15.164062 " />
        <path style=" stroke:none;fill-rule:evenodd;fill-opacity:1;"
              d="M 4.242188 15.210938 C 4.609375 16.1875 4.96875 17.171875 5.320312 18.164062 C 4.632812 18.179688 3.945312 18.164062 3.257812 18.117188 C 3.640625 17.167969 3.96875 16.199219 4.242188 15.210938 Z M 4.242188 15.210938 " />
    </g>
</svg>