<?xml version="1.0" encoding="UTF-8"?>
<svg stroke="currentColor"
     fill="currentColor"
     stroke-width="0"
     role="img"
     viewBox="0 0 24 24"
     height="1em"
     width="1em"
     xmlns="http://www.w3.org/2000/svg">
    <path
      d="M11.93 1.102a.39.39 0 0 1 .187.023l2.672 1.57c-3.105 1.828-6.223 3.64-9.351 5.438a315.2 315.2 0 0 0 0 7.687 422.938 422.938 0 0 0 6.585 3.797l6.563-3.797c.062-2.562.062-5.125 0-7.687l-2.86-1.664c.926-.547 1.856-1.086 2.79-1.617a80.536 80.536 0 0 1 2.882 1.64 320.86 320.86 0 0 1 0 10.969l-9.375 5.39a567.606 567.606 0 0 1-9.445-5.437c-.031-3.625-.031-7.25 0-10.875 3.117-1.82 6.235-3.633 9.352-5.437Zm0 0"
    />
    <path
      d="M11.977 8.602c.968.543 1.937 1.09 2.906 1.64a32.11 32.11 0 0 1 0 3.469 128.9 128.9 0 0 0-2.86 1.64c-.984-.554-1.96-1.117-2.93-1.687a60.762 60.762 0 0 1 0-3.375c.97-.555 1.93-1.117 2.884-1.687Zm0 0"
    />
</svg>
