<?xml version="1.0" encoding="UTF-8"?>
<svg stroke="currentColor"
     fill="currentColor"
     stroke-width="0"
     role="img"
     viewBox="0 0 24 24"
     height="1em"
     width="1em"
     xmlns="http://www.w3.org/2000/svg">
    <path style=" stroke:none;fill-rule:evenodd;fill-opacity:1;"
          d="M 10.148438 2.320312 C 11.367188 2.3125 12.585938 2.320312 13.804688 2.34375 C 14.0625 2.40625 14.289062 2.523438 14.484375 2.695312 C 17.132812 7.265625 19.78125 11.835938 22.429688 16.40625 C 22.550781 16.609375 22.652344 16.820312 22.734375 17.039062 C 22.769531 17.359375 22.761719 17.679688 22.710938 18 C 22.167969 18.9375 21.644531 19.882812 21.140625 20.835938 C 20.976562 21.003906 20.796875 21.152344 20.601562 21.28125 C 14.902344 21.359375 9.199219 21.375 3.492188 21.328125 C 3.191406 21.25 2.949219 21.085938 2.765625 20.835938 C 2.25 19.898438 1.734375 18.960938 1.21875 18.023438 C 1.1875 17.695312 1.1875 17.367188 1.21875 17.039062 C 1.285156 16.925781 1.339844 16.808594 1.382812 16.6875 C 4.066406 12.097656 6.730469 7.496094 9.375 2.882812 C 9.589844 2.628906 9.847656 2.441406 10.148438 2.320312 Z M 11.507812 7.476562 C 12.328125 7.382812 13.0625 7.578125 13.710938 8.0625 C 15.015625 9.265625 16.0625 10.671875 16.851562 12.28125 C 17.210938 13.179688 17.5 14.09375 17.71875 15.023438 C 17.78125 15.636719 17.679688 16.222656 17.414062 16.78125 C 17.046875 17.316406 16.570312 17.730469 15.984375 18.023438 C 13.644531 18.808594 11.277344 18.902344 8.882812 18.304688 C 8.109375 18.136719 7.4375 17.792969 6.867188 17.273438 C 6.363281 16.609375 6.152344 15.859375 6.234375 15.023438 C 6.871094 12.132812 8.300781 9.742188 10.523438 7.851562 C 10.847656 7.703125 11.175781 7.578125 11.507812 7.476562 Z M 11.507812 7.476562 " />
</svg>