<?xml version="1.0" encoding="UTF-8"?>
<svg stroke="currentColor"
     fill="currentColor"
     stroke-width="0"
     role="img"
     viewBox="0 0 24 24"
     height="1em"
     width="1em"
     xmlns="http://www.w3.org/2000/svg">
    <g id="surface5"
       clip-path="url(#clip1)">
        <path style=" stroke:none;fill-rule:evenodd;fill-opacity:1;"
              d="M 8.695312 0.726562 C 9.15625 0.625 9.492188 0.78125 9.703125 1.195312 C 9.726562 2.039062 9.734375 2.882812 9.726562 3.726562 C 10.226562 3.726562 10.726562 3.726562 11.226562 3.726562 C 11.21875 2.882812 11.226562 2.039062 11.25 1.195312 C 11.382812 0.867188 11.625 0.710938 11.976562 0.726562 C 12.328125 0.710938 12.570312 0.867188 12.703125 1.195312 C 12.726562 2.039062 12.734375 2.882812 12.726562 3.726562 C 13.226562 3.726562 13.726562 3.726562 14.226562 3.726562 C 14.21875 2.882812 14.226562 2.039062 14.25 1.195312 C 14.382812 0.867188 14.625 0.710938 14.976562 0.726562 C 15.328125 0.710938 15.570312 0.867188 15.703125 1.195312 C 15.726562 2.039062 15.734375 2.882812 15.726562 3.726562 C 19.367188 3.085938 20.867188 4.585938 20.226562 8.226562 C 21.070312 8.21875 21.914062 8.226562 22.757812 8.25 C 23.085938 8.382812 23.242188 8.625 23.226562 8.976562 C 23.242188 9.328125 23.085938 9.570312 22.757812 9.703125 C 21.914062 9.726562 21.070312 9.734375 20.226562 9.726562 C 20.226562 10.226562 20.226562 10.726562 20.226562 11.226562 C 21.070312 11.21875 21.914062 11.226562 22.757812 11.25 C 23.085938 11.382812 23.242188 11.625 23.226562 11.976562 C 23.242188 12.328125 23.085938 12.570312 22.757812 12.703125 C 21.914062 12.726562 21.070312 12.734375 20.226562 12.726562 C 20.226562 13.226562 20.226562 13.726562 20.226562 14.226562 C 21.070312 14.21875 21.914062 14.226562 22.757812 14.25 C 23.085938 14.382812 23.242188 14.625 23.226562 14.976562 C 23.242188 15.328125 23.085938 15.570312 22.757812 15.703125 C 21.914062 15.726562 21.070312 15.734375 20.226562 15.726562 C 20.867188 19.367188 19.367188 20.867188 15.726562 20.226562 C 15.734375 21.070312 15.726562 21.914062 15.703125 22.757812 C 15.570312 23.085938 15.328125 23.242188 14.976562 23.226562 C 14.625 23.242188 14.382812 23.085938 14.25 22.757812 C 14.226562 21.914062 14.21875 21.070312 14.226562 20.226562 C 13.726562 20.226562 13.226562 20.226562 12.726562 20.226562 C 12.734375 21.070312 12.726562 21.914062 12.703125 22.757812 C 12.570312 23.085938 12.328125 23.242188 11.976562 23.226562 C 11.625 23.242188 11.382812 23.085938 11.25 22.757812 C 11.226562 21.914062 11.21875 21.070312 11.226562 20.226562 C 10.726562 20.226562 10.226562 20.226562 9.726562 20.226562 C 9.734375 21.070312 9.726562 21.914062 9.703125 22.757812 C 9.570312 23.085938 9.328125 23.242188 8.976562 23.226562 C 8.625 23.242188 8.382812 23.085938 8.25 22.757812 C 8.226562 21.914062 8.21875 21.070312 8.226562 20.226562 C 4.585938 20.867188 3.085938 19.367188 3.726562 15.726562 C 2.882812 15.734375 2.039062 15.726562 1.195312 15.703125 C 0.867188 15.570312 0.710938 15.328125 0.726562 14.976562 C 0.710938 14.625 0.867188 14.382812 1.195312 14.25 C 2.039062 14.226562 2.882812 14.21875 3.726562 14.226562 C 3.726562 13.726562 3.726562 13.226562 3.726562 12.726562 C 2.882812 12.734375 2.039062 12.726562 1.195312 12.703125 C 0.867188 12.570312 0.710938 12.328125 0.726562 11.976562 C 0.710938 11.625 0.867188 11.382812 1.195312 11.25 C 2.039062 11.226562 2.882812 11.21875 3.726562 11.226562 C 3.726562 10.726562 3.726562 10.226562 3.726562 9.726562 C 2.882812 9.734375 2.039062 9.726562 1.195312 9.703125 C 0.867188 9.570312 0.710938 9.328125 0.726562 8.976562 C 0.710938 8.625 0.867188 8.382812 1.195312 8.25 C 2.039062 8.226562 2.882812 8.21875 3.726562 8.226562 C 3.085938 4.585938 4.585938 3.085938 8.226562 3.726562 C 8.21875 2.882812 8.226562 2.039062 8.25 1.195312 C 8.34375 0.984375 8.492188 0.828125 8.695312 0.726562 Z M 5.976562 5.226562 C 9.976562 5.21875 13.976562 5.226562 17.976562 5.25 C 18.40625 5.304688 18.648438 5.546875 18.703125 5.976562 C 18.734375 9.976562 18.734375 13.976562 18.703125 17.976562 C 18.648438 18.40625 18.40625 18.648438 17.976562 18.703125 C 13.976562 18.734375 9.976562 18.734375 5.976562 18.703125 C 5.546875 18.648438 5.304688 18.40625 5.25 17.976562 C 5.21875 13.976562 5.21875 9.976562 5.25 5.976562 C 5.3125 5.546875 5.554688 5.296875 5.976562 5.226562 Z M 10.992188 12.773438 C 11.800781 12.761719 12.074219 13.136719 11.8125 13.898438 C 11.519531 14.203125 11.183594 14.257812 10.804688 14.0625 C 10.5 13.769531 10.445312 13.433594 10.640625 13.054688 C 10.738281 12.933594 10.855469 12.839844 10.992188 12.773438 Z M 10.992188 12.773438 " />
    </g>
    <g id="surface8"
       clip-path="url(#clip2)">
        <path style=" stroke:none;fill-rule:evenodd;fill-opacity:1;"
              d="M 7.195312 8.976562 C 7.65625 8.875 7.992188 9.03125 8.203125 9.445312 C 8.234375 11.382812 8.234375 13.320312 8.203125 15.257812 C 8.070312 15.585938 7.828125 15.742188 7.476562 15.726562 C 7.125 15.742188 6.882812 15.585938 6.75 15.257812 C 6.71875 13.320312 6.71875 11.382812 6.75 9.445312 C 6.84375 9.234375 6.992188 9.078125 7.195312 8.976562 Z M 7.195312 8.976562 " />
    </g>
    <g id="surface11"
       clip-path="url(#clip3)">
        <path style=" stroke:none;fill-rule:evenodd;fill-opacity:1;"
              d="M 13.195312 8.976562 C 14.382812 8.96875 15.570312 8.976562 16.757812 9 C 17.179688 9.210938 17.328125 9.546875 17.203125 10.007812 C 17.117188 10.21875 16.96875 10.367188 16.757812 10.453125 C 16.414062 10.476562 16.070312 10.484375 15.726562 10.476562 C 15.734375 12.070312 15.726562 13.664062 15.703125 15.257812 C 15.570312 15.585938 15.328125 15.742188 14.976562 15.726562 C 14.625 15.742188 14.382812 15.585938 14.25 15.257812 C 14.226562 13.664062 14.21875 12.070312 14.226562 10.476562 C 13.882812 10.484375 13.539062 10.476562 13.195312 10.453125 C 12.773438 10.242188 12.625 9.90625 12.75 9.445312 C 12.84375 9.234375 12.992188 9.078125 13.195312 8.976562 Z M 13.195312 8.976562 " />
    </g>
    <g id="surface14"
       clip-path="url(#clip4)">
        <path style=" stroke:none;fill-rule:evenodd;fill-opacity:1;"
              d="M 10.757812 11.226562 C 12.148438 11.089844 13.046875 11.683594 13.453125 13.007812 C 13.613281 14.398438 13.027344 15.296875 11.695312 15.703125 C 10.304688 15.863281 9.40625 15.277344 9 13.945312 C 8.84375 12.550781 9.429688 11.644531 10.757812 11.226562 Z M 10.992188 12.773438 C 10.855469 12.839844 10.738281 12.933594 10.640625 13.054688 C 10.445312 13.433594 10.5 13.769531 10.804688 14.0625 C 11.183594 14.257812 11.519531 14.203125 11.8125 13.898438 C 12.074219 13.136719 11.800781 12.761719 10.992188 12.773438 Z M 10.992188 12.773438 " />
    </g>
</svg>