<?xml version="1.0" encoding="UTF-8"?>
<svg stroke="currentColor"
     fill="currentColor"
     stroke-width="0"
     role="img"
     viewBox="0 0 24 24"
     height="1em"
     width="1em"
     xmlns="http://www.w3.org/2000/svg">
    <path style=" stroke:none;fill-rule:evenodd;fill-opacity:1;"
          d="M 2.320312 0.398438 C 8.757812 0.390625 15.195312 0.398438 21.632812 0.421875 C 22.421875 0.59375 22.992188 1.039062 23.34375 1.757812 C 23.425781 1.9375 23.488281 2.125 23.53125 2.320312 C 23.5625 8.757812 23.5625 15.195312 23.53125 21.632812 C 23.359375 22.421875 22.914062 22.992188 22.195312 23.34375 C 22.015625 23.425781 21.828125 23.488281 21.632812 23.53125 C 15.195312 23.5625 8.757812 23.5625 2.320312 23.53125 C 1.53125 23.359375 0.960938 22.914062 0.609375 22.195312 C 0.527344 22.015625 0.464844 21.828125 0.421875 21.632812 C 0.390625 15.195312 0.390625 8.757812 0.421875 2.320312 C 0.59375 1.53125 1.039062 0.960938 1.757812 0.609375 C 1.949219 0.53125 2.136719 0.460938 2.320312 0.398438 Z M 7.007812 6.914062 C 6.921875 7.023438 6.859375 7.148438 6.820312 7.289062 C 6.746094 7.691406 6.683594 8.097656 6.632812 8.507812 C 6.605469 8.511719 6.582031 8.527344 6.5625 8.554688 C 6.539062 8.726562 6.53125 8.898438 6.539062 9.070312 C 6.476562 9.289062 6.476562 9.507812 6.539062 9.726562 C 6.523438 9.894531 6.539062 10.046875 6.585938 10.195312 C 6.671875 10.589844 6.765625 10.980469 6.867188 11.367188 C 6.902344 11.453125 6.949219 11.53125 7.007812 11.601562 C 7.074219 11.835938 7.175781 12.054688 7.3125 12.257812 C 7.347656 12.332031 7.402344 12.378906 7.476562 12.398438 C 7.488281 12.5 7.535156 12.578125 7.617188 12.632812 C 7.710938 12.757812 7.820312 12.867188 7.945312 12.960938 C 8.097656 13.089844 8.238281 13.230469 8.367188 13.382812 C 8.992188 13.761719 9.664062 14.011719 10.382812 14.132812 C 10.6875 14.078125 10.984375 13.992188 11.273438 13.875 C 11.460938 13.773438 11.617188 13.640625 11.742188 13.476562 C 11.910156 13.449219 12.019531 13.355469 12.070312 13.195312 C 12.253906 12.796875 12.253906 12.398438 12.070312 12 C 12.082031 11.941406 12.113281 11.894531 12.164062 11.859375 C 12.429688 11.703125 12.695312 11.703125 12.960938 11.859375 C 13.648438 12.242188 13.992188 12.828125 13.992188 13.617188 C 13.980469 14.109375 13.871094 14.578125 13.664062 15.023438 C 13.53125 15.171875 13.4375 15.34375 13.382812 15.539062 C 13.140625 15.726562 12.9375 15.953125 12.773438 16.21875 C 11.253906 17.367188 9.566406 17.695312 7.710938 17.203125 C 7.34375 17.113281 6.984375 17.003906 6.632812 16.875 C 6.199219 16.613281 5.746094 16.402344 5.273438 16.242188 C 5.113281 16.066406 4.925781 15.925781 4.710938 15.820312 C 4.398438 15.601562 4.101562 15.367188 3.820312 15.117188 C 3.714844 15 3.589844 14.90625 3.445312 14.835938 C 3.335938 14.6875 3.234375 14.53125 3.140625 14.367188 C 2.917969 14.171875 2.714844 13.953125 2.53125 13.710938 C 1.96875 12.855469 1.46875 11.964844 1.03125 11.039062 C 1 8.273438 1 5.507812 1.03125 2.742188 C 1.175781 2.292969 1.449219 1.949219 1.851562 1.710938 C 1.960938 1.6875 2.054688 1.640625 2.132812 1.570312 C 2.238281 1.554688 2.332031 1.515625 2.414062 1.453125 C 5.554688 1.429688 8.695312 1.421875 11.835938 1.429688 C 11.84375 1.492188 11.828125 1.546875 11.789062 1.59375 C 11.277344 1.875 10.777344 2.171875 10.289062 2.484375 C 9.910156 2.738281 9.558594 3.027344 9.234375 3.351562 C 8.746094 3.917969 8.277344 4.496094 7.828125 5.085938 C 7.59375 5.550781 7.359375 6.019531 7.125 6.492188 C 7.070312 6.628906 7.03125 6.769531 7.007812 6.914062 Z M 18.820312 7.898438 C 18.945312 7.992188 19.070312 8.085938 19.195312 8.179688 C 19.550781 8.390625 19.878906 8.640625 20.179688 8.929688 C 20.277344 9.019531 20.386719 9.097656 20.507812 9.164062 C 20.632812 9.328125 20.75 9.5 20.859375 9.679688 C 20.925781 9.742188 21.003906 9.789062 21.09375 9.820312 C 21.578125 10.542969 22.046875 11.277344 22.5 12.023438 C 22.640625 12.335938 22.78125 12.648438 22.921875 12.960938 C 22.953125 15.679688 22.953125 18.398438 22.921875 21.117188 C 22.867188 21.367188 22.773438 21.601562 22.640625 21.820312 C 22.578125 21.890625 22.507812 21.953125 22.429688 22.007812 C 22.175781 22.199219 21.910156 22.371094 21.632812 22.523438 C 18.453125 22.585938 15.28125 22.585938 12.117188 22.523438 C 12.117188 22.492188 12.117188 22.460938 12.117188 22.429688 C 12.847656 22.03125 13.550781 21.585938 14.226562 21.09375 C 14.304688 21.039062 14.351562 20.96875 14.367188 20.882812 C 14.4375 20.886719 14.484375 20.855469 14.507812 20.789062 C 14.613281 20.757812 14.699219 20.695312 14.765625 20.601562 C 14.921875 20.351562 15.109375 20.132812 15.328125 19.945312 C 15.589844 19.527344 15.886719 19.136719 16.21875 18.773438 C 16.550781 18.121094 16.847656 17.449219 17.109375 16.757812 C 17.195312 16.339844 17.265625 15.917969 17.320312 15.492188 C 17.347656 15.488281 17.371094 15.472656 17.390625 15.445312 C 17.414062 15.273438 17.421875 15.101562 17.414062 14.929688 C 17.476562 14.710938 17.476562 14.492188 17.414062 14.273438 C 17.429688 14.105469 17.414062 13.953125 17.367188 13.804688 C 17.242188 12.855469 16.882812 12.011719 16.289062 11.273438 C 16.128906 11.113281 15.957031 10.972656 15.773438 10.851562 C 15.699219 10.730469 15.605469 10.636719 15.492188 10.570312 C 14.792969 10.117188 14.027344 9.90625 13.195312 9.9375 C 12.691406 10.097656 12.261719 10.371094 11.90625 10.757812 C 11.792969 10.96875 11.738281 11.195312 11.742188 11.4375 C 11.75 11.660156 11.789062 11.871094 11.859375 12.070312 C 11.488281 12.296875 11.121094 12.273438 10.757812 12 C 10.09375 11.480469 9.835938 10.800781 9.984375 9.960938 C 10.054688 9.644531 10.140625 9.332031 10.242188 9.023438 C 10.386719 8.859375 10.496094 8.671875 10.570312 8.460938 C 10.695312 8.367188 10.804688 8.257812 10.898438 8.132812 C 11.011719 8.066406 11.089844 7.972656 11.132812 7.851562 C 11.164062 7.851562 11.179688 7.835938 11.179688 7.804688 C 11.246094 7.78125 11.277344 7.734375 11.273438 7.664062 C 11.761719 7.417969 12.246094 7.160156 12.726562 6.890625 C 14.089844 6.476562 15.449219 6.492188 16.804688 6.9375 C 17.335938 7.15625 17.867188 7.375 18.398438 7.59375 C 18.539062 7.695312 18.679688 7.796875 18.820312 7.898438 Z M 18.820312 7.898438 " />
    <path style=" stroke:none;fill-rule:evenodd;fill-opacity:1;"
          d="M 2.132812 1.570312 C 2.054688 1.640625 1.960938 1.6875 1.851562 1.710938 C 1.84375 1.660156 1.851562 1.613281 1.875 1.570312 C 1.953125 1.539062 2.039062 1.539062 2.132812 1.570312 Z M 2.132812 1.570312 " />
    <path style=" stroke:none;fill-rule:evenodd;fill-opacity:1;"
          d="M 7.007812 6.914062 C 7.035156 6.925781 7.050781 6.949219 7.054688 6.984375 C 7.003906 7.082031 6.972656 7.183594 6.960938 7.289062 C 6.914062 7.289062 6.867188 7.289062 6.820312 7.289062 C 6.859375 7.148438 6.921875 7.023438 7.007812 6.914062 Z M 7.007812 6.914062 " />
    <path style=" stroke:none;fill-rule:evenodd;fill-opacity:1;"
          d="M 11.273438 7.664062 C 11.277344 7.734375 11.246094 7.78125 11.179688 7.804688 C 11.175781 7.734375 11.207031 7.6875 11.273438 7.664062 Z M 11.273438 7.664062 " />
    <path style=" stroke:none;fill-rule:evenodd;fill-opacity:1;"
          d="M 11.132812 7.851562 C 11.089844 7.972656 11.011719 8.066406 10.898438 8.132812 C 10.910156 7.980469 10.988281 7.886719 11.132812 7.851562 Z M 11.132812 7.851562 " />
    <path style=" stroke:none;fill-rule:evenodd;fill-opacity:1;"
          d="M 18.820312 7.898438 C 18.9375 7.910156 19.046875 7.949219 19.148438 8.015625 C 19.1875 8.0625 19.203125 8.117188 19.195312 8.179688 C 19.070312 8.085938 18.945312 7.992188 18.820312 7.898438 Z M 18.820312 7.898438 " />
    <path style=" stroke:none;fill-rule:evenodd;fill-opacity:1;"
          d="M 6.632812 8.507812 C 6.640625 8.679688 6.632812 8.851562 6.609375 9.023438 C 6.589844 9.050781 6.566406 9.066406 6.539062 9.070312 C 6.53125 8.898438 6.539062 8.726562 6.5625 8.554688 C 6.582031 8.527344 6.605469 8.511719 6.632812 8.507812 Z M 6.632812 8.507812 " />
    <path style=" stroke:none;fill-rule:evenodd;fill-opacity:1;"
          d="M 10.570312 8.460938 C 10.496094 8.671875 10.386719 8.859375 10.242188 9.023438 C 10.222656 9.027344 10.207031 9.019531 10.195312 9 C 10.28125 8.789062 10.40625 8.609375 10.570312 8.460938 Z M 10.570312 8.460938 " />
    <path style=" stroke:none;fill-rule:evenodd;fill-opacity:1;"
          d="M 20.507812 9.164062 C 20.386719 9.097656 20.277344 9.019531 20.179688 8.929688 C 20.347656 8.90625 20.457031 8.984375 20.507812 9.164062 Z M 20.507812 9.164062 " />
    <path style=" stroke:none;fill-rule:evenodd;fill-opacity:1;"
          d="M 6.539062 9.726562 C 6.609375 9.773438 6.640625 9.84375 6.632812 9.9375 C 6.625 10.027344 6.609375 10.113281 6.585938 10.195312 C 6.539062 10.046875 6.523438 9.894531 6.539062 9.726562 Z M 6.539062 9.726562 " />
    <path style=" stroke:none;fill-rule:evenodd;fill-opacity:1;"
          d="M 15.492188 10.570312 C 15.605469 10.636719 15.699219 10.730469 15.773438 10.851562 C 15.777344 10.871094 15.769531 10.886719 15.75 10.898438 C 15.636719 10.808594 15.550781 10.699219 15.492188 10.570312 Z M 15.492188 10.570312 " />
    <path style=" stroke:none;fill-rule:evenodd;fill-opacity:1;"
          d="M 6.867188 11.367188 C 7.023438 11.382812 7.070312 11.460938 7.007812 11.601562 C 6.949219 11.53125 6.902344 11.453125 6.867188 11.367188 Z M 6.867188 11.367188 " />
    <path style=" stroke:none;fill-rule:evenodd;fill-opacity:1;"
          d="M 7.476562 12.398438 C 7.554688 12.429688 7.617188 12.484375 7.664062 12.5625 C 7.636719 12.582031 7.621094 12.605469 7.617188 12.632812 C 7.535156 12.578125 7.488281 12.5 7.476562 12.398438 Z M 7.476562 12.398438 " />
    <path style=" stroke:none;fill-rule:evenodd;fill-opacity:1;"
          d="M 7.945312 12.960938 C 8.164062 13.023438 8.304688 13.164062 8.367188 13.382812 C 8.238281 13.230469 8.097656 13.089844 7.945312 12.960938 Z M 7.945312 12.960938 " />
    <path style=" stroke:none;fill-rule:evenodd;fill-opacity:1;"
          d="M 12.070312 13.195312 C 12.019531 13.355469 11.910156 13.449219 11.742188 13.476562 C 11.824219 13.347656 11.933594 13.253906 12.070312 13.195312 Z M 12.070312 13.195312 " />
    <path style=" stroke:none;fill-rule:evenodd;fill-opacity:1;"
          d="M 17.367188 13.804688 C 17.414062 13.953125 17.429688 14.105469 17.414062 14.273438 C 17.34375 14.226562 17.3125 14.15625 17.320312 14.0625 C 17.328125 13.972656 17.34375 13.886719 17.367188 13.804688 Z M 17.367188 13.804688 " />
    <path style=" stroke:none;fill-rule:evenodd;fill-opacity:1;"
          d="M 3.445312 14.835938 C 3.589844 14.90625 3.714844 15 3.820312 15.117188 C 3.640625 15.089844 3.515625 14.996094 3.445312 14.835938 Z M 3.445312 14.835938 " />
    <path style=" stroke:none;fill-rule:evenodd;fill-opacity:1;"
          d="M 17.414062 14.929688 C 17.421875 15.101562 17.414062 15.273438 17.390625 15.445312 C 17.371094 15.472656 17.347656 15.488281 17.320312 15.492188 C 17.3125 15.320312 17.320312 15.148438 17.34375 14.976562 C 17.363281 14.949219 17.386719 14.933594 17.414062 14.929688 Z M 17.414062 14.929688 " />
    <path style=" stroke:none;fill-rule:evenodd;fill-opacity:1;"
          d="M 13.664062 15.023438 C 13.667969 15.050781 13.683594 15.074219 13.710938 15.09375 C 13.617188 15.257812 13.507812 15.40625 13.382812 15.539062 C 13.4375 15.34375 13.53125 15.171875 13.664062 15.023438 Z M 13.664062 15.023438 " />
    <path style=" stroke:none;fill-rule:evenodd;fill-opacity:1;"
          d="M 4.710938 15.820312 C 4.925781 15.925781 5.113281 16.066406 5.273438 16.242188 C 5.113281 16.167969 4.957031 16.082031 4.804688 15.984375 C 4.742188 15.945312 4.710938 15.890625 4.710938 15.820312 Z M 4.710938 15.820312 " />
    <path style=" stroke:none;fill-rule:evenodd;fill-opacity:1;"
          d="M 14.507812 20.789062 C 14.484375 20.855469 14.4375 20.886719 14.367188 20.882812 C 14.382812 20.808594 14.429688 20.777344 14.507812 20.789062 Z M 14.507812 20.789062 " />
    <path style=" stroke:none;fill-rule:evenodd;fill-opacity:1;"
          d="M 12.117188 22.429688 C 12.117188 22.460938 12.117188 22.492188 12.117188 22.523438 C 11.992188 22.492188 11.992188 22.460938 12.117188 22.429688 Z M 12.117188 22.429688 " />
    <path style=" stroke:none;fill-rule:evenodd;fill-opacity:1;"
          d="M 22.429688 22.007812 C 22.425781 22.128906 22.371094 22.222656 22.265625 22.289062 C 22.25 22.273438 22.234375 22.257812 22.21875 22.242188 C 22.199219 22.34375 22.152344 22.375 22.078125 22.335938 C 21.941406 22.429688 21.792969 22.492188 21.632812 22.523438 C 21.910156 22.371094 22.175781 22.199219 22.429688 22.007812 Z M 22.429688 22.007812 " />
</svg>