<?xml version="1.0" encoding="UTF-8"?>
<svg stroke="currentColor"
     fill="currentColor"
     stroke-width="0"
     role="img"
     viewBox="0 0 24 24"
     height="1em"
     width="1em"
     xmlns="http://www.w3.org/2000/svg">
        <g id="surface5"
           clip-path="url(#clip1)">
            <path style=" stroke:none;fill-rule:evenodd;fill-opacity:1;"
                  d="M 6.398438 8.320312 C 8.699219 8.214844 10.917969 8.582031 13.054688 9.421875 C 14.316406 9.972656 15.449219 10.714844 16.453125 11.648438 C 16.597656 11.859375 16.753906 12.0625 16.921875 12.257812 C 16.945312 12.300781 16.953125 12.347656 16.945312 12.398438 C 16.652344 12.285156 16.386719 12.121094 16.148438 11.90625 C 14.5 10.945312 12.734375 10.289062 10.851562 9.9375 C 9.125 9.648438 7.40625 9.695312 5.695312 10.078125 C 5.078125 10.277344 4.5 10.558594 3.960938 10.921875 C 3.277344 11.433594 3.050781 12.097656 3.28125 12.914062 C 3.613281 13.660156 4.121094 14.253906 4.804688 14.695312 C 4.730469 14.75 4.652344 14.757812 4.570312 14.71875 C 3.265625 14.289062 2.132812 13.59375 1.171875 12.632812 C 0.503906 11.886719 0.410156 11.074219 0.890625 10.195312 C 1.566406 9.488281 2.386719 9.027344 3.351562 8.8125 C 4.355469 8.535156 5.371094 8.371094 6.398438 8.320312 Z M 6.398438 8.320312 " />
        </g>
        <g id="surface8"
           clip-path="url(#clip2)">
            <path style=" stroke:none;fill-rule:evenodd;fill-opacity:1;"
                  d="M 13.195312 9.023438 C 15.199219 9.226562 16.816406 10.117188 18.046875 11.695312 C 18.300781 11.328125 18.542969 10.953125 18.773438 10.570312 C 19.132812 10.523438 19.492188 10.507812 19.851562 10.523438 C 19.851562 10.609375 19.828125 10.6875 19.78125 10.757812 C 19.378906 11.300781 18.996094 11.855469 18.632812 12.421875 C 18.210938 12.460938 17.789062 12.453125 17.367188 12.398438 C 17.023438 11.800781 16.585938 11.277344 16.054688 10.828125 C 15.214844 10.113281 14.277344 9.550781 13.242188 9.140625 C 13.207031 9.109375 13.191406 9.070312 13.195312 9.023438 Z M 13.195312 9.023438 " />
        </g>
        <g id="surface11"
           clip-path="url(#clip3)">
            <path style=" stroke:none;fill-rule:evenodd;fill-opacity:1;"
                  d="M 5.601562 10.476562 C 6.878906 10.289062 7.699219 10.804688 8.0625 12.023438 C 8.234375 12.882812 8.023438 13.625 7.429688 14.25 C 6.695312 14.75 5.914062 14.828125 5.085938 14.484375 C 4.242188 13.878906 3.921875 13.058594 4.125 12.023438 C 4.324219 11.222656 4.816406 10.707031 5.601562 10.476562 Z M 5.835938 10.992188 C 6.878906 10.988281 7.410156 11.511719 7.429688 12.5625 C 7.441406 12.960938 7.339844 13.328125 7.125 13.664062 C 6.617188 14.195312 6.03125 14.296875 5.367188 13.96875 C 4.867188 13.488281 4.671875 12.902344 4.78125 12.210938 C 4.878906 11.574219 5.230469 11.167969 5.835938 10.992188 Z M 5.835938 10.992188 " />
        </g>
        <g id="surface14"
           clip-path="url(#clip4)">
            <path style=" stroke:none;fill-rule:evenodd;fill-opacity:1;"
                  d="M 20.039062 10.523438 C 20.820312 10.515625 21.601562 10.523438 22.382812 10.546875 C 23.128906 10.652344 23.480469 11.082031 23.4375 11.835938 C 23.433594 12.210938 23.269531 12.484375 22.945312 12.65625 C 23.132812 12.796875 23.265625 12.976562 23.34375 13.195312 C 23.371094 13.671875 23.441406 14.140625 23.554688 14.601562 C 23.226562 14.617188 22.898438 14.601562 22.570312 14.554688 C 22.472656 14.203125 22.417969 13.84375 22.40625 13.476562 C 22.371094 13.269531 22.253906 13.136719 22.054688 13.078125 C 21.710938 13.054688 21.367188 13.046875 21.023438 13.054688 C 21.03125 13.554688 21.023438 14.054688 21 14.554688 C 20.683594 14.601562 20.363281 14.617188 20.039062 14.601562 C 20.039062 13.242188 20.039062 11.882812 20.039062 10.523438 Z M 20.976562 11.320312 C 21.367188 11.3125 21.757812 11.320312 22.148438 11.34375 C 22.359375 11.429688 22.453125 11.585938 22.429688 11.8125 C 22.460938 12.027344 22.382812 12.183594 22.195312 12.28125 C 21.792969 12.347656 21.386719 12.371094 20.976562 12.351562 C 20.976562 12.007812 20.976562 11.664062 20.976562 11.320312 Z M 20.976562 11.320312 " />
        </g>
        <g id="surface17"
           clip-path="url(#clip5)">
            <path style=" stroke:none;fill-rule:evenodd;fill-opacity:1;"
                  d="M 9.304688 11.976562 C 10.289062 11.875 10.804688 12.320312 10.851562 13.3125 C 10.78125 14.398438 10.21875 14.820312 9.164062 14.578125 C 9.066406 14.539062 8.980469 14.484375 8.90625 14.414062 C 8.882812 14.804688 8.875 15.195312 8.882812 15.585938 C 8.710938 15.585938 8.539062 15.585938 8.367188 15.585938 C 8.367188 14.398438 8.367188 13.210938 8.367188 12.023438 C 8.539062 12.023438 8.710938 12.023438 8.882812 12.023438 C 8.871094 12.078125 8.886719 12.125 8.929688 12.164062 C 9.046875 12.074219 9.171875 12.011719 9.304688 11.976562 Z M 9.304688 12.445312 C 9.796875 12.351562 10.117188 12.539062 10.265625 13.007812 C 10.371094 13.4375 10.269531 13.804688 9.960938 14.109375 C 9.441406 14.308594 9.089844 14.144531 8.90625 13.617188 C 8.792969 13.132812 8.925781 12.742188 9.304688 12.445312 Z M 9.304688 12.445312 " />
        </g>
        <g id="surface20"
           clip-path="url(#clip6)">
            <path style=" stroke:none;fill-rule:evenodd;fill-opacity:1;"
                  d="M 11.929688 11.976562 C 12.992188 11.898438 13.507812 12.398438 13.476562 13.476562 C 12.851562 13.476562 12.226562 13.476562 11.601562 13.476562 C 11.636719 13.902344 11.871094 14.152344 12.304688 14.226562 C 12.515625 14.1875 12.695312 14.09375 12.84375 13.945312 C 12.890625 13.875 12.914062 13.796875 12.914062 13.710938 C 13.085938 13.710938 13.257812 13.710938 13.429688 13.710938 C 13.382812 14.183594 13.132812 14.488281 12.679688 14.625 C 12.167969 14.746094 11.722656 14.628906 11.34375 14.273438 C 11.082031 13.785156 11.019531 13.269531 11.15625 12.726562 C 11.285156 12.339844 11.542969 12.089844 11.929688 11.976562 Z M 12.023438 12.445312 C 12.472656 12.367188 12.769531 12.539062 12.914062 12.960938 C 12.476562 13.023438 12.039062 13.023438 11.601562 12.960938 C 11.664062 12.722656 11.804688 12.550781 12.023438 12.445312 Z M 12.023438 12.445312 " />
        </g>
        <g id="surface23"
           clip-path="url(#clip7)">
            <path style=" stroke:none;fill-rule:evenodd;fill-opacity:1;"
                  d="M 14.695312 11.976562 C 15.023438 11.945312 15.335938 11.992188 15.632812 12.117188 C 15.785156 12.253906 15.871094 12.425781 15.890625 12.632812 C 15.914062 13.289062 15.921875 13.945312 15.914062 14.601562 C 15.742188 14.601562 15.570312 14.601562 15.398438 14.601562 C 15.40625 13.976562 15.398438 13.351562 15.375 12.726562 C 15.308594 12.507812 15.160156 12.414062 14.929688 12.445312 C 14.554688 12.453125 14.328125 12.640625 14.25 13.007812 C 14.226562 13.539062 14.21875 14.070312 14.226562 14.601562 C 14.070312 14.601562 13.914062 14.601562 13.757812 14.601562 C 13.757812 13.742188 13.757812 12.882812 13.757812 12.023438 C 13.914062 12.023438 14.070312 12.023438 14.226562 12.023438 C 14.21875 12.101562 14.226562 12.179688 14.25 12.257812 C 14.382812 12.132812 14.53125 12.039062 14.695312 11.976562 Z M 14.695312 11.976562 " />
        </g>
        <g id="surface26"
           clip-path="url(#clip8)">
            <path style=" stroke:none;fill-rule:evenodd;fill-opacity:1;"
                  d="M 17.367188 12.632812 C 17.804688 12.617188 18.242188 12.632812 18.679688 12.679688 C 19.066406 13.25 19.464844 13.8125 19.875 14.367188 C 19.921875 14.4375 19.945312 14.515625 19.945312 14.601562 C 19.570312 14.609375 19.195312 14.601562 18.820312 14.578125 C 18.546875 14.179688 18.273438 13.78125 18 13.382812 C 17.726562 13.773438 17.453125 14.164062 17.179688 14.554688 C 16.820312 14.601562 16.460938 14.617188 16.101562 14.601562 C 16.09375 14.550781 16.101562 14.503906 16.125 14.460938 C 16.5625 13.867188 16.976562 13.257812 17.367188 12.632812 Z M 17.367188 12.632812 " />
        </g>
</svg>