<?xml version="1.0" encoding="UTF-8"?>
<svg stroke="currentColor"
     fill="currentColor"
     stroke-width="0"
     role="img"
     viewBox="0 0 24 24"
     height="1em"
     width="1em"
     xmlns="http://www.w3.org/2000/svg">
    <path style=" stroke:none;fill-rule:evenodd;fill-opacity:1;"
          d="M 8.816406 -0.0078125 C 8.859375 -0.0078125 8.902344 -0.0078125 8.945312 -0.0078125 C 9.042969 0.292969 9.140625 0.59375 9.234375 0.898438 C 9.480469 1.539062 9.761719 2.167969 10.070312 2.78125 C 10.230469 3.089844 10.390625 3.398438 10.554688 3.710938 C 10.648438 3.859375 10.734375 4.011719 10.816406 4.164062 C 11.699219 4.308594 12.578125 4.464844 13.453125 4.628906 C 15.308594 4.984375 17.070312 5.601562 18.734375 6.480469 C 19.769531 7.074219 20.652344 7.84375 21.386719 8.78125 C 21.597656 9.074219 21.796875 9.367188 21.992188 9.664062 C 21.992188 9.675781 21.992188 9.695312 21.992188 9.710938 C 21.582031 9.761719 21.167969 9.824219 20.757812 9.902344 C 18.488281 10.347656 16.246094 10.882812 14.03125 11.507812 C 13.804688 11.570312 13.582031 11.636719 13.363281 11.710938 C 13.394531 11.992188 13.433594 12.269531 13.480469 12.546875 C 13.5625 13.292969 13.589844 14.042969 13.566406 14.796875 C 13.523438 16.125 13.359375 17.441406 13.070312 18.742188 C 12.867188 19.460938 12.640625 20.171875 12.386719 20.875 C 12.214844 21.304688 12.039062 21.730469 11.859375 22.15625 C 11.640625 22.59375 11.425781 23.035156 11.210938 23.476562 C 11.113281 23.648438 11.015625 23.820312 10.921875 23.992188 C 10.660156 23.992188 10.398438 23.992188 10.136719 23.992188 C 8.679688 23.886719 7.230469 23.691406 5.792969 23.402344 C 5.113281 23.25 4.441406 23.058594 3.78125 22.828125 C 3.441406 22.695312 3.097656 22.558594 2.757812 22.417969 C 2.101562 22.109375 1.507812 21.710938 0.980469 21.21875 C 0.832031 21.066406 0.6875 20.914062 0.542969 20.757812 C 0.261719 20.441406 0.078125 20.074219 -0.0078125 19.65625 C -0.0078125 19.460938 -0.0078125 19.257812 -0.0078125 19.0625 C 0.125 18.570312 0.339844 18.121094 0.648438 17.710938 C 1.054688 17.199219 1.519531 16.75 2.042969 16.359375 C 2.429688 16.03125 2.8125 15.699219 3.195312 15.363281 C 3.59375 15.007812 3.976562 14.628906 4.339844 14.234375 C 5.078125 13.40625 5.734375 12.519531 6.304688 11.570312 C 7.007812 10.433594 7.28125 9.199219 7.128906 7.867188 C 7.039062 7.050781 6.765625 6.300781 6.304688 5.617188 C 6.15625 5.40625 5.996094 5.203125 5.824219 5.007812 C 5.164062 4.347656 4.5 3.691406 3.824219 3.039062 C 3.757812 2.957031 3.703125 2.867188 3.660156 2.773438 C 3.632812 2.679688 3.636719 2.59375 3.675781 2.507812 C 3.824219 2.308594 4.007812 2.140625 4.21875 2.003906 C 4.464844 1.855469 4.710938 1.710938 4.945312 1.570312 C 5.238281 1.425781 5.527344 1.28125 5.816406 1.136719 C 6.804688 0.714844 7.804688 0.335938 8.816406 -0.0078125 Z M 8.804688 0.203125 C 8.820312 0.203125 8.835938 0.207031 8.847656 0.21875 C 8.890625 0.632812 8.96875 1.042969 9.070312 1.445312 C 9.144531 1.6875 9.222656 1.925781 9.304688 2.164062 C 9.320312 2.203125 9.324219 2.246094 9.316406 2.289062 C 9.253906 2.261719 9.183594 2.238281 9.113281 2.226562 C 8.917969 2.183594 8.71875 2.144531 8.523438 2.109375 C 7.570312 1.945312 6.621094 1.792969 5.664062 1.652344 C 5.753906 1.59375 5.84375 1.539062 5.933594 1.488281 C 6.246094 1.335938 6.558594 1.179688 6.863281 1.019531 C 7.515625 0.738281 8.160156 0.46875 8.804688 0.203125 Z M 5.40625 1.859375 C 6.007812 2.023438 6.605469 2.167969 7.207031 2.296875 C 7.945312 2.433594 8.691406 2.539062 9.441406 2.613281 C 8.8125 2.929688 8.203125 3.269531 7.605469 3.632812 C 7.585938 3.640625 7.566406 3.644531 7.546875 3.648438 C 7.441406 3.628906 7.335938 3.613281 7.230469 3.597656 C 6.621094 3.011719 6.011719 2.433594 5.40625 1.859375 Z M 6.40625 3.453125 C 5.695312 3.34375 4.996094 3.183594 4.3125 2.96875 C 4.316406 2.894531 4.335938 2.820312 4.363281 2.75 C 4.414062 2.660156 4.472656 2.578125 4.542969 2.5 C 4.730469 2.285156 4.945312 2.101562 5.1875 1.953125 C 5.320312 2.101562 5.449219 2.257812 5.566406 2.421875 C 5.847656 2.761719 6.128906 3.105469 6.40625 3.453125 Z M 9.535156 2.820312 C 9.550781 2.816406 9.5625 2.820312 9.570312 2.828125 C 9.777344 3.253906 9.996094 3.671875 10.230469 4.078125 C 10.058594 4.0625 9.890625 4.039062 9.722656 4.007812 C 9.222656 3.921875 8.71875 3.835938 8.21875 3.75 C 8.695312 3.492188 9.132812 3.179688 9.535156 2.820312 Z M 4.699219 3.453125 C 5.1875 3.59375 5.675781 3.730469 6.164062 3.859375 C 6.351562 4.371094 6.515625 4.886719 6.660156 5.40625 C 6.691406 5.507812 6.714844 5.609375 6.730469 5.710938 C 6.199219 4.828125 5.523438 4.074219 4.699219 3.453125 Z M 6.441406 3.929688 C 6.441406 3.925781 6.445312 3.921875 6.453125 3.921875 C 7.382812 4.109375 8.3125 4.292969 9.242188 4.464844 C 8.9375 4.636719 8.636719 4.816406 8.335938 5.003906 C 8.117188 5.164062 7.902344 5.328125 7.6875 5.496094 C 7.527344 5.65625 7.359375 5.808594 7.1875 5.960938 C 7.007812 5.257812 6.757812 4.582031 6.441406 3.929688 Z M 9.558594 4.53125 C 9.585938 4.542969 9.601562 4.566406 9.613281 4.601562 C 9.761719 5.0625 9.847656 5.539062 9.871094 6.03125 C 9.871094 6.136719 9.875 6.242188 9.875 6.351562 C 9.878906 6.539062 9.871094 6.722656 9.847656 6.90625 C 9.175781 6.683594 8.492188 6.484375 7.792969 6.304688 C 7.71875 6.28125 7.648438 6.257812 7.578125 6.226562 C 7.570312 6.21875 7.570312 6.214844 7.578125 6.203125 C 7.8125 5.964844 8.054688 5.726562 8.300781 5.496094 C 8.710938 5.160156 9.132812 4.839844 9.558594 4.53125 Z M 9.851562 4.554688 C 11.007812 4.726562 12.15625 4.941406 13.289062 5.191406 C 13.207031 5.238281 13.125 5.28125 13.042969 5.320312 C 12.070312 5.730469 11.15625 6.234375 10.300781 6.835938 C 10.304688 6.300781 10.238281 5.773438 10.105469 5.257812 C 10.03125 5.015625 9.945312 4.78125 9.851562 4.554688 Z M 13.6875 5.3125 C 13.683594 5.460938 13.664062 5.609375 13.625 5.757812 C 13.484375 6.207031 13.320312 6.644531 13.128906 7.070312 C 12.957031 7.421875 12.765625 7.765625 12.558594 8.097656 C 12.523438 8.09375 12.484375 8.082031 12.453125 8.0625 C 12.144531 7.871094 11.820312 7.699219 11.488281 7.546875 C 11.207031 7.429688 10.929688 7.308594 10.652344 7.183594 C 11.625 6.5 12.636719 5.875 13.6875 5.3125 Z M 13.207031 8.03125 C 13.296875 7.816406 13.390625 7.601562 13.492188 7.390625 C 13.742188 6.742188 13.902344 6.074219 13.976562 5.382812 C 13.984375 5.371094 13.996094 5.363281 14.011719 5.359375 C 15.070312 5.632812 16.109375 5.96875 17.125 6.375 C 17.332031 6.457031 17.53125 6.546875 17.722656 6.644531 C 16.464844 6.921875 15.226562 7.28125 14.007812 7.722656 C 13.738281 7.828125 13.472656 7.933594 13.207031 8.03125 Z M 7.394531 6.875 C 7.789062 6.945312 8.175781 7.039062 8.558594 7.160156 C 8.855469 7.261719 9.15625 7.367188 9.453125 7.476562 C 9.109375 7.757812 8.773438 8.046875 8.441406 8.34375 C 8.117188 8.652344 7.792969 8.957031 7.46875 9.265625 C 7.546875 8.464844 7.519531 7.667969 7.394531 6.875 Z M 17.96875 6.882812 C 17.988281 6.886719 17.996094 6.894531 17.988281 6.90625 C 17.925781 7.011719 17.863281 7.109375 17.800781 7.210938 C 17.355469 7.839844 16.890625 8.449219 16.398438 9.039062 C 15.984375 9.566406 15.570312 10.085938 15.152344 10.609375 C 15 10.398438 14.847656 10.1875 14.695312 9.976562 C 14.523438 9.78125 14.347656 9.589844 14.175781 9.390625 C 13.882812 9.105469 13.574219 8.839844 13.253906 8.589844 C 14.777344 7.910156 16.351562 7.34375 17.96875 6.882812 Z M 18.3125 6.953125 C 19.546875 7.621094 20.632812 8.476562 21.570312 9.527344 C 20.238281 9.648438 18.910156 9.828125 17.59375 10.066406 C 16.953125 10.199219 16.308594 10.339844 15.664062 10.488281 C 15.894531 10.261719 16.128906 10.042969 16.363281 9.828125 C 16.59375 9.578125 16.816406 9.328125 17.035156 9.078125 C 17.171875 8.882812 17.3125 8.691406 17.457031 8.5 C 17.777344 8.007812 18.0625 7.492188 18.3125 6.953125 Z M 10.195312 7.789062 C 10.777344 8.03125 11.339844 8.3125 11.886719 8.625 C 11.351562 8.894531 10.824219 9.171875 10.300781 9.457031 C 9.976562 9.644531 9.65625 9.839844 9.339844 10.039062 C 9.429688 9.855469 9.523438 9.671875 9.625 9.484375 C 9.863281 8.9375 10.054688 8.371094 10.195312 7.789062 Z M 9.6875 7.882812 C 9.695312 7.882812 9.699219 7.890625 9.699219 7.898438 C 9.46875 8.820312 9.101562 9.683594 8.601562 10.484375 C 8.429688 10.316406 8.257812 10.160156 8.078125 10.007812 C 7.90625 9.898438 7.734375 9.796875 7.558594 9.703125 C 7.902344 9.375 8.257812 9.054688 8.617188 8.742188 C 8.972656 8.449219 9.328125 8.164062 9.6875 7.882812 Z M 9.746094 12.320312 C 9.898438 12.164062 10.058594 12.019531 10.230469 11.882812 C 11.128906 11.027344 11.921875 10.085938 12.617188 9.0625 C 13.386719 9.539062 14.101562 10.09375 14.757812 10.734375 C 13.066406 11.191406 11.394531 11.722656 9.746094 12.320312 Z M 11.792969 9.273438 C 11.679688 9.464844 11.554688 9.648438 11.421875 9.828125 C 10.777344 10.703125 10.097656 11.554688 9.386719 12.382812 C 9.355469 12.414062 9.324219 12.445312 9.289062 12.476562 C 9.289062 11.921875 9.15625 11.402344 8.894531 10.914062 C 8.886719 10.898438 8.882812 10.878906 8.882812 10.859375 C 9.390625 10.554688 9.902344 10.261719 10.417969 9.972656 C 10.875 9.730469 11.332031 9.5 11.792969 9.273438 Z M 6.417969 12.109375 C 6.582031 11.859375 6.730469 11.597656 6.871094 11.328125 C 7.011719 11.019531 7.132812 10.707031 7.242188 10.390625 C 7.25 10.375 7.261719 10.375 7.277344 10.382812 C 7.546875 10.523438 7.800781 10.6875 8.042969 10.875 C 7.738281 11.113281 7.429688 11.34375 7.113281 11.566406 C 6.878906 11.75 6.648438 11.929688 6.417969 12.109375 Z M 5.464844 14.117188 C 5.722656 13.914062 5.984375 13.714844 6.253906 13.523438 C 6.84375 13.039062 7.402344 12.519531 7.929688 11.960938 C 8.105469 11.75 8.28125 11.546875 8.464844 11.34375 C 8.492188 11.347656 8.511719 11.359375 8.53125 11.382812 C 8.800781 11.75 8.957031 12.160156 8.992188 12.617188 C 8.027344 12.984375 7.070312 13.375 6.125 13.792969 C 5.902344 13.898438 5.683594 14.003906 5.464844 14.117188 Z M 7.816406 11.523438 C 7.710938 11.675781 7.59375 11.820312 7.46875 11.960938 C 7.265625 12.164062 7.058594 12.367188 6.851562 12.574219 C 6.226562 13.15625 5.546875 13.671875 4.816406 14.117188 C 5.085938 13.828125 5.347656 13.535156 5.601562 13.234375 C 5.722656 13.0625 5.855469 12.902344 6.007812 12.75 C 6.355469 12.511719 6.707031 12.269531 7.054688 12.023438 C 7.308594 11.855469 7.5625 11.691406 7.816406 11.523438 Z M 12.746094 11.890625 C 12.761719 11.890625 12.773438 11.898438 12.777344 11.914062 C 12.890625 12.554688 12.949219 13.203125 12.953125 13.859375 C 12.949219 13.867188 12.945312 13.875 12.933594 13.882812 C 12.207031 13.464844 11.496094 13.015625 10.804688 12.539062 C 11.128906 12.421875 11.453125 12.308594 11.78125 12.199219 C 12.105469 12.09375 12.425781 11.992188 12.746094 11.890625 Z M 10.371094 12.671875 C 10.792969 12.933594 11.214844 13.1875 11.640625 13.441406 C 12.0625 13.667969 12.492188 13.886719 12.921875 14.097656 C 12.898438 14.125 12.871094 14.148438 12.839844 14.167969 C 12.199219 14.597656 11.527344 14.984375 10.828125 15.328125 C 10.511719 15.472656 10.191406 15.613281 9.871094 15.757812 C 9.863281 15.734375 9.863281 15.710938 9.871094 15.6875 C 10.164062 14.710938 10.304688 13.714844 10.300781 12.695312 C 10.328125 12.695312 10.351562 12.6875 10.371094 12.671875 Z M 9.792969 12.882812 C 9.824219 13.300781 9.8125 13.71875 9.753906 14.140625 C 9.691406 14.503906 9.613281 14.867188 9.519531 15.226562 C 9.476562 15.390625 9.425781 15.550781 9.363281 15.710938 C 9.179688 15.53125 8.996094 15.359375 8.8125 15.179688 C 8.546875 14.882812 8.3125 14.5625 8.105469 14.21875 C 8 14.027344 7.914062 13.824219 7.851562 13.609375 C 8.214844 13.476562 8.574219 13.339844 8.921875 13.195312 C 9.21875 13.097656 9.507812 12.996094 9.792969 12.882812 Z M 7.429688 13.789062 C 7.523438 13.996094 7.617188 14.203125 7.71875 14.40625 C 8.074219 15.042969 8.539062 15.59375 9.113281 16.054688 C 8.917969 16.128906 8.726562 16.207031 8.535156 16.289062 C 7.582031 16.628906 6.621094 16.957031 5.660156 17.265625 C 5.828125 16.960938 6.003906 16.65625 6.1875 16.351562 C 6.378906 15.96875 6.574219 15.585938 6.765625 15.203125 C 6.964844 14.757812 7.148438 14.304688 7.324219 13.84375 C 7.359375 13.824219 7.394531 13.804688 7.429688 13.789062 Z M 6.628906 14.125 C 6.640625 14.125 6.652344 14.128906 6.664062 14.132812 C 6.621094 14.226562 6.582031 14.324219 6.542969 14.421875 C 6.042969 15.410156 5.492188 16.367188 4.886719 17.289062 C 4.515625 16.589844 4.425781 15.855469 4.628906 15.085938 C 4.742188 15.015625 4.859375 14.949219 4.980469 14.894531 C 5.535156 14.640625 6.082031 14.386719 6.628906 14.125 Z M 12.957031 14.375 C 12.972656 15.402344 12.890625 16.429688 12.722656 17.449219 C 11.746094 17.171875 10.839844 16.746094 10.007812 16.171875 C 10.394531 15.964844 10.773438 15.761719 11.140625 15.570312 C 11.402344 15.40625 11.667969 15.246094 11.933594 15.09375 C 12.121094 14.964844 12.308594 14.839844 12.5 14.71875 C 12.65625 14.609375 12.8125 14.492188 12.957031 14.375 Z M 3.933594 15.4375 C 3.902344 15.667969 3.882812 15.898438 3.875 16.132812 C 3.875 16.507812 3.949219 16.867188 4.105469 17.210938 C 4.183594 17.363281 4.261719 17.515625 4.335938 17.671875 C 3.128906 18.042969 1.921875 18.394531 0.707031 18.734375 C 0.773438 18.417969 0.882812 18.117188 1.035156 17.828125 C 1.191406 17.550781 1.375 17.289062 1.589844 17.046875 C 1.757812 16.871094 1.933594 16.703125 2.113281 16.535156 C 2.566406 16.171875 3.0625 15.867188 3.59375 15.621094 C 3.695312 15.550781 3.808594 15.488281 3.933594 15.4375 Z M 8.324219 19.414062 C 8.667969 18.785156 8.976562 18.140625 9.257812 17.476562 C 9.394531 17.132812 9.527344 16.785156 9.652344 16.4375 C 10.597656 16.988281 11.605469 17.382812 12.675781 17.625 C 12.4375 17.746094 12.203125 17.863281 11.96875 17.976562 C 10.761719 18.488281 9.546875 18.96875 8.324219 19.414062 Z M 8.992188 16.632812 C 9.007812 16.632812 9.019531 16.636719 9.03125 16.648438 C 8.589844 17.714844 8.070312 18.742188 7.46875 19.726562 C 7.101562 19.511719 6.746094 19.273438 6.40625 19.019531 C 6 18.6875 5.625 18.320312 5.289062 17.917969 C 5.96875 17.730469 6.640625 17.527344 7.3125 17.308594 C 7.765625 17.144531 8.214844 16.972656 8.664062 16.792969 C 8.78125 16.75 8.890625 16.695312 8.992188 16.632812 Z M 12.640625 17.890625 C 12.394531 18.992188 12.085938 20.074219 11.710938 21.140625 C 11.078125 21.042969 10.457031 20.902344 9.839844 20.71875 C 9.46875 20.597656 9.101562 20.46875 8.734375 20.332031 C 8.519531 20.246094 8.308594 20.148438 8.101562 20.039062 C 8.53125 19.839844 8.960938 19.648438 9.386719 19.46875 C 9.753906 19.292969 10.125 19.125 10.5 18.960938 C 10.902344 18.761719 11.304688 18.566406 11.710938 18.375 C 12.019531 18.207031 12.328125 18.042969 12.640625 17.890625 Z M 4.289062 18.15625 C 4.300781 18.15625 4.3125 18.160156 4.324219 18.164062 C 3.8125 18.898438 3.292969 19.628906 2.765625 20.351562 C 2.566406 20.644531 2.363281 20.945312 2.164062 21.242188 C 1.851562 20.972656 1.558594 20.683594 1.292969 20.375 C 1.023438 20.039062 0.832031 19.660156 0.730469 19.234375 C 0.707031 19.160156 0.703125 19.082031 0.710938 19 C 1.910156 18.726562 3.101562 18.445312 4.289062 18.15625 Z M 4.804688 18.335938 C 4.875 18.402344 4.941406 18.476562 5 18.554688 C 5.207031 18.753906 5.410156 18.953125 5.617188 19.148438 C 5.789062 19.28125 5.960938 19.414062 6.136719 19.546875 C 6.320312 19.667969 6.507812 19.78125 6.699219 19.886719 C 6.734375 19.910156 6.765625 19.933594 6.792969 19.960938 C 6.105469 20.222656 5.417969 20.46875 4.730469 20.703125 C 4.695312 20.722656 4.65625 20.742188 4.617188 20.753906 C 3.90625 20.992188 3.199219 21.234375 2.5 21.484375 C 2.457031 21.457031 2.414062 21.429688 2.371094 21.398438 C 2.449219 21.289062 2.523438 21.175781 2.601562 21.0625 C 3.230469 20.246094 3.878906 19.445312 4.554688 18.664062 C 4.640625 18.554688 4.722656 18.445312 4.804688 18.335938 Z M 7.722656 20.40625 C 8.019531 20.5 8.308594 20.605469 8.59375 20.71875 C 9.5625 21.011719 10.550781 21.210938 11.558594 21.316406 C 11.011719 21.5 10.464844 21.671875 9.917969 21.828125 C 9.089844 22.078125 8.257812 22.324219 7.429688 22.570312 C 6.949219 22.699219 6.46875 22.835938 5.992188 22.980469 C 5.945312 22.984375 5.898438 22.980469 5.851562 22.960938 C 5.863281 22.917969 5.886719 22.878906 5.917969 22.84375 C 6.578125 22.078125 7.183594 21.265625 7.722656 20.40625 Z M 7.007812 20.429688 C 7.023438 20.429688 7.039062 20.433594 7.054688 20.4375 C 6.757812 20.917969 6.453125 21.390625 6.140625 21.859375 C 5.9375 22.199219 5.734375 22.53125 5.53125 22.867188 C 4.726562 22.636719 3.949219 22.328125 3.207031 21.949219 C 3.039062 21.855469 2.882812 21.75 2.734375 21.632812 C 4.011719 21.289062 5.285156 20.9375 6.554688 20.585938 C 6.703125 20.53125 6.855469 20.480469 7.007812 20.429688 Z M 11.582031 21.484375 C 11.59375 21.484375 11.601562 21.488281 11.605469 21.5 C 11.535156 21.714844 11.464844 21.929688 11.386719 22.140625 C 11.226562 22.5625 11.070312 22.984375 10.917969 23.40625 C 10.871094 23.539062 10.816406 23.660156 10.746094 23.777344 C 10.078125 23.707031 9.414062 23.613281 8.757812 23.496094 C 7.992188 23.378906 7.226562 23.242188 6.464844 23.085938 C 7.445312 22.878906 8.421875 22.636719 9.394531 22.359375 C 10.144531 22.117188 10.875 21.828125 11.582031 21.484375 Z M 11.582031 21.484375 " />
</svg>