<?xml version="1.0" encoding="UTF-8"?>
<svg stroke="currentColor"
     fill="currentColor"
     stroke-width="0"
     role="img"
     viewBox="0 0 24 24"
     height="1em"
     width="1em"
     xmlns="http://www.w3.org/2000/svg">
    <path style=" stroke:none;fill-rule:evenodd;fill-opacity:1;"
          d="M 21.492188 5.601562 C 22.011719 5.511719 22.417969 5.683594 22.710938 6.117188 C 23.1875 7.097656 23.125 8.035156 22.523438 8.929688 C 22.710938 9.136719 22.90625 9.339844 23.109375 9.539062 C 23.160156 9.667969 23.230469 9.785156 23.320312 9.890625 C 23.277344 9.90625 23.238281 9.929688 23.203125 9.960938 C 23.105469 10.308594 22.894531 10.550781 22.570312 10.6875 C 22.164062 10.71875 21.757812 10.71875 21.351562 10.6875 C 20.820312 10.570312 20.429688 10.265625 20.179688 9.773438 C 19.890625 9.691406 19.789062 9.800781 19.875 10.101562 C 20.21875 10.660156 20.710938 11.011719 21.351562 11.15625 C 21.234375 11.269531 21.09375 11.347656 20.929688 11.390625 C 20.324219 11.472656 19.714844 11.535156 19.101562 11.578125 C 18.71875 11.859375 18.390625 12.195312 18.117188 12.585938 C 17.632812 13.050781 17.054688 13.253906 16.382812 13.195312 C 16.671875 13.554688 16.992188 13.898438 17.34375 14.226562 C 17.714844 14.652344 17.980469 15.136719 18.140625 15.679688 C 18.175781 16.066406 18.066406 16.410156 17.8125 16.710938 C 17.492188 17.113281 17.078125 17.324219 16.570312 17.34375 C 15.296875 17.609375 14.53125 17.117188 14.273438 15.867188 C 14.234375 15.699219 14.210938 15.527344 14.203125 15.351562 C 14.183594 15.332031 14.160156 15.316406 14.132812 15.304688 C 13.917969 15.414062 13.691406 15.445312 13.453125 15.398438 C 13.371094 15.394531 13.300781 15.417969 13.242188 15.46875 C 13.554688 15.960938 13.710938 16.5 13.710938 17.085938 C 13.734375 17.695312 13.453125 18.09375 12.867188 18.28125 C 11.589844 18.449219 10.363281 18.285156 9.1875 17.789062 C 8.976562 17.640625 8.796875 17.460938 8.648438 17.25 C 8.527344 16.796875 8.527344 16.34375 8.648438 15.890625 C 8.695312 15.773438 8.757812 15.664062 8.835938 15.5625 C 8.804688 15.515625 8.773438 15.46875 8.742188 15.421875 C 7.898438 15.246094 7.09375 14.957031 6.328125 14.554688 C 6.21875 14.597656 6.140625 14.675781 6.09375 14.789062 C 6.0625 15.070312 6.0625 15.351562 6.09375 15.632812 C 6.3125 16.101562 6.539062 16.5625 6.773438 17.015625 C 6.507812 17.421875 6.140625 17.679688 5.671875 17.789062 C 5.164062 17.679688 4.65625 17.5625 4.148438 17.4375 C 3.816406 17.296875 3.503906 17.117188 3.210938 16.898438 C 2.847656 16.296875 2.714844 15.640625 2.8125 14.929688 C 3.011719 14.359375 3.339844 13.875 3.796875 13.476562 C 3.878906 13.394531 3.910156 13.300781 3.890625 13.195312 C 3.804688 13.078125 3.703125 12.976562 3.585938 12.890625 C 2.5625 12.328125 1.625 11.648438 0.773438 10.851562 C 0.570312 10.53125 0.664062 10.367188 1.054688 10.359375 C 2.144531 10.722656 3.230469 11.105469 4.3125 11.507812 C 5.25 8.410156 7.34375 6.847656 10.59375 6.820312 C 11.46875 6.816406 12.320312 6.949219 13.148438 7.21875 C 13.8125 7.542969 14.453125 7.902344 15.070312 8.296875 C 15.199219 8.425781 15.339844 8.535156 15.492188 8.625 C 15.601562 8.765625 15.710938 8.90625 15.820312 9.046875 C 16.082031 9.011719 16.347656 9.019531 16.617188 9.070312 C 16.8125 9.164062 16.960938 9.304688 17.0625 9.492188 C 17.082031 9.714844 17.066406 9.933594 17.015625 10.148438 C 17.609375 10.226562 18.0625 10.007812 18.375 9.492188 C 18.5 9.238281 18.625 8.988281 18.75 8.742188 C 18.777344 8.476562 18.808594 8.210938 18.84375 7.945312 C 18.894531 7.707031 18.964844 7.472656 19.054688 7.242188 C 19.289062 6.890625 19.53125 6.546875 19.78125 6.210938 C 20.140625 5.773438 20.5625 5.679688 21.046875 5.929688 C 21.21875 5.84375 21.367188 5.734375 21.492188 5.601562 Z M 21.632812 5.742188 C 21.773438 5.734375 21.914062 5.742188 22.054688 5.765625 C 22.476562 6.011719 22.71875 6.378906 22.78125 6.867188 C 22.8125 7.210938 22.8125 7.554688 22.78125 7.898438 C 22.71875 8.273438 22.554688 8.59375 22.289062 8.859375 C 22.082031 9.007812 21.855469 9.046875 21.609375 8.976562 C 21.539062 8.9375 21.484375 8.882812 21.445312 8.8125 C 21.707031 8.289062 21.792969 7.734375 21.703125 7.148438 C 21.671875 6.9375 21.617188 6.734375 21.539062 6.539062 C 21.429688 6.40625 21.351562 6.257812 21.304688 6.09375 C 21.3125 6.054688 21.320312 6.015625 21.328125 5.976562 C 21.433594 5.894531 21.535156 5.816406 21.632812 5.742188 Z M 20.320312 5.976562 C 20.761719 5.925781 21.089844 6.097656 21.304688 6.492188 C 21.613281 7.234375 21.613281 7.976562 21.304688 8.71875 C 20.875 9.375 20.40625 9.414062 19.898438 8.835938 C 19.769531 8.632812 19.683594 8.414062 19.640625 8.179688 C 19.605469 7.75 19.613281 7.320312 19.664062 6.890625 C 19.726562 6.679688 19.820312 6.484375 19.945312 6.304688 C 20.0625 6.175781 20.1875 6.066406 20.320312 5.976562 Z M 16.148438 9.445312 C 16.484375 9.410156 16.625 9.550781 16.570312 9.867188 C 16.441406 10.011719 16.308594 10.152344 16.171875 10.289062 C 16.074219 10.433594 15.988281 10.589844 15.914062 10.757812 C 15.730469 11.3125 15.582031 11.875 15.46875 12.445312 C 15.339844 12.851562 15.191406 13.25 15.023438 13.640625 C 14.847656 14 14.636719 14.335938 14.390625 14.648438 C 14.230469 14.773438 14.066406 14.890625 13.898438 15 C 13.773438 15.03125 13.648438 15.03125 13.523438 15 C 12.449219 14.6875 11.355469 14.601562 10.242188 14.742188 C 9.945312 14.777344 9.664062 14.855469 9.398438 14.976562 C 9.164062 15.03125 8.929688 15.039062 8.695312 15 C 7.984375 14.757812 7.28125 14.484375 6.585938 14.179688 C 6.09375 13.628906 5.5 13.230469 4.804688 12.984375 C 4.632812 12.96875 4.460938 12.953125 4.289062 12.9375 C 4.015625 12.742188 3.8125 12.492188 3.679688 12.1875 C 3.6875 12.109375 3.71875 12.046875 3.773438 12 C 4.292969 11.941406 4.792969 12.003906 5.273438 12.1875 C 6.136719 12.503906 6.917969 12.957031 7.617188 13.546875 C 8.371094 13.859375 9.152344 13.9375 9.960938 13.78125 C 10.722656 13.46875 11.519531 13.328125 12.351562 13.359375 C 12.726562 13.488281 13.101562 13.628906 13.476562 13.78125 C 13.792969 13.8125 14.066406 13.707031 14.296875 13.476562 C 14.40625 13.277344 14.523438 13.082031 14.648438 12.890625 C 14.921875 12.128906 15.148438 11.355469 15.328125 10.570312 C 15.445312 10.277344 15.585938 9.996094 15.75 9.726562 C 15.875 9.613281 16.007812 9.519531 16.148438 9.445312 Z M 16.148438 9.445312 " />
    <path style=" stroke:none;fill-rule:evenodd;fill-opacity:1;"
          d="M 22.195312 6.914062 C 22.351562 6.894531 22.460938 6.957031 22.523438 7.101562 C 22.5625 7.246094 22.609375 7.386719 22.664062 7.523438 C 22.605469 7.667969 22.558594 7.816406 22.523438 7.96875 C 22.3125 8.199219 22.132812 8.175781 21.984375 7.898438 C 21.855469 7.519531 21.925781 7.191406 22.195312 6.914062 Z M 22.195312 6.914062 " />
    <path style=" stroke:none;fill-rule:evenodd;fill-opacity:1;"
          d="M 20.835938 7.195312 C 21.183594 7.253906 21.355469 7.464844 21.351562 7.828125 C 21.371094 8.15625 21.230469 8.382812 20.929688 8.507812 C 20.679688 8.363281 20.539062 8.144531 20.507812 7.851562 C 20.539062 7.589844 20.648438 7.371094 20.835938 7.195312 Z M 20.835938 7.195312 " />
</svg>