<?xml version="1.0" encoding="UTF-8"?>
<svg stroke="currentColor"
     fill="currentColor"
     stroke-width="0"
     role="img"
     viewBox="0 0 24 24"
     height="1em"
     width="1em"
     xmlns="http://www.w3.org/2000/svg">
    <g id="surface1">
        <path style=" stroke:none;fill-rule:evenodd;fill-opacity:1;"
              d="M 10.992188 0.726562 C 11.632812 0.71875 12.273438 0.726562 12.914062 0.75 C 13.164062 0.871094 13.421875 0.894531 13.6875 0.820312 C 13.757812 0.859375 13.828125 0.898438 13.898438 0.9375 C 15.660156 1.246094 17.253906 1.925781 18.679688 2.976562 C 18.914062 3.195312 19.164062 3.382812 19.429688 3.539062 C 19.417969 3.59375 19.433594 3.640625 19.476562 3.679688 C 19.757812 3.898438 20.007812 4.148438 20.226562 4.429688 C 20.265625 4.472656 20.3125 4.488281 20.367188 4.476562 C 20.523438 4.742188 20.710938 4.992188 20.929688 5.226562 C 21.980469 6.652344 22.660156 8.246094 22.96875 10.007812 C 23.089844 10.160156 23.113281 10.332031 23.039062 10.523438 C 23.035156 10.691406 23.074219 10.847656 23.15625 10.992188 C 23.1875 11.632812 23.1875 12.273438 23.15625 12.914062 C 23.035156 13.164062 23.011719 13.421875 23.085938 13.6875 C 23.046875 13.757812 23.007812 13.828125 22.96875 13.898438 C 22.660156 15.660156 21.980469 17.253906 20.929688 18.679688 C 20.710938 18.914062 20.523438 19.164062 20.367188 19.429688 C 20.3125 19.417969 20.265625 19.433594 20.226562 19.476562 C 20.007812 19.757812 19.757812 20.007812 19.476562 20.226562 C 19.433594 20.265625 19.417969 20.3125 19.429688 20.367188 C 19.164062 20.523438 18.914062 20.710938 18.679688 20.929688 C 17.253906 21.980469 15.660156 22.660156 13.898438 22.96875 C 13.746094 23.089844 13.574219 23.113281 13.382812 23.039062 C 13.214844 23.035156 13.058594 23.074219 12.914062 23.15625 C 12.273438 23.1875 11.632812 23.1875 10.992188 23.15625 C 10.742188 23.035156 10.484375 23.011719 10.21875 23.085938 C 10.148438 23.046875 10.078125 23.007812 10.007812 22.96875 C 8.246094 22.660156 6.652344 21.980469 5.226562 20.929688 C 4.992188 20.710938 4.742188 20.523438 4.476562 20.367188 C 4.488281 20.3125 4.472656 20.265625 4.429688 20.226562 C 4.148438 20.007812 3.898438 19.757812 3.679688 19.476562 C 3.640625 19.433594 3.59375 19.417969 3.539062 19.429688 C 3.382812 19.164062 3.195312 18.914062 2.976562 18.679688 C 1.925781 17.253906 1.246094 15.660156 0.9375 13.898438 C 0.816406 13.746094 0.792969 13.574219 0.867188 13.382812 C 0.871094 13.214844 0.832031 13.058594 0.75 12.914062 C 0.71875 12.273438 0.71875 11.632812 0.75 10.992188 C 0.871094 10.742188 0.894531 10.484375 0.820312 10.21875 C 0.859375 10.148438 0.898438 10.078125 0.9375 10.007812 C 1.246094 8.246094 1.925781 6.652344 2.976562 5.226562 C 3.195312 4.992188 3.382812 4.742188 3.539062 4.476562 C 3.59375 4.488281 3.640625 4.472656 3.679688 4.429688 C 3.898438 4.148438 4.148438 3.898438 4.429688 3.679688 C 4.472656 3.640625 4.488281 3.59375 4.476562 3.539062 C 4.742188 3.382812 4.992188 3.195312 5.226562 2.976562 C 6.378906 2.160156 7.628906 1.542969 8.976562 1.125 C 9.257812 1.078125 9.539062 1.03125 9.820312 0.984375 C 9.96875 0.960938 10.101562 0.90625 10.21875 0.820312 C 10.496094 0.902344 10.753906 0.871094 10.992188 0.726562 Z M 15.210938 4.570312 C 15.492188 4.546875 15.757812 4.601562 16.007812 4.734375 C 17.007812 5.21875 18.007812 5.703125 19.007812 6.1875 C 19.242188 6.355469 19.375 6.582031 19.40625 6.867188 C 19.453125 10.351562 19.4375 13.835938 19.359375 17.320312 C 19.277344 17.496094 19.160156 17.644531 19.007812 17.765625 C 18.007812 18.25 17.007812 18.734375 16.007812 19.21875 C 15.578125 19.457031 15.171875 19.425781 14.789062 19.125 C 12.84375 17.3125 10.875 15.523438 8.882812 13.757812 C 8.0625 14.363281 7.25 14.980469 6.445312 15.609375 C 6.183594 15.835938 5.902344 15.867188 5.601562 15.703125 C 5.304688 15.4375 5.007812 15.171875 4.710938 14.90625 C 4.472656 14.625 4.464844 14.335938 4.6875 14.039062 C 5.464844 13.378906 6.222656 12.691406 6.960938 11.976562 C 6.222656 11.261719 5.464844 10.574219 4.6875 9.914062 C 4.464844 9.617188 4.472656 9.328125 4.710938 9.046875 C 5.007812 8.78125 5.304688 8.515625 5.601562 8.25 C 5.902344 8.085938 6.183594 8.117188 6.445312 8.34375 C 7.25 8.972656 8.0625 9.589844 8.882812 10.195312 C 10.875 8.429688 12.84375 6.640625 14.789062 4.828125 C 14.917969 4.71875 15.058594 4.632812 15.210938 4.570312 Z M 15.210938 4.570312 " />
        <path style=" stroke:none;fill-rule:evenodd;fill-opacity:1;"
              d="M 15.632812 8.601562 C 15.695312 9.710938 15.726562 10.835938 15.726562 11.976562 C 15.710938 13.101562 15.695312 14.226562 15.679688 15.351562 C 14.1875 14.238281 12.703125 13.113281 11.226562 11.976562 C 12.699219 10.851562 14.167969 9.726562 15.632812 8.601562 Z M 15.632812 8.601562 " />
    </g>
</svg>