<?xml version="1.0" encoding="UTF-8"?>
<svg stroke="currentColor"
     fill="currentColor"
     stroke-width="0"
     role="img"
     viewBox="0 0 24 24"
     height="1em"
     width="1em"
     xmlns="http://www.w3.org/2000/svg">
    <g id="surface1">
        <path style=" stroke:none;fill-rule:evenodd;fill-opacity:1;"
              d="M 11.039062 0.773438 C 11.679688 0.765625 12.320312 0.773438 12.960938 0.796875 C 13.210938 0.917969 13.46875 0.941406 13.734375 0.867188 C 13.804688 0.90625 13.875 0.945312 13.945312 0.984375 C 15.707031 1.292969 17.300781 1.972656 18.726562 3.023438 C 18.960938 3.242188 19.210938 3.429688 19.476562 3.585938 C 19.464844 3.640625 19.480469 3.6875 19.523438 3.726562 C 19.804688 3.945312 20.054688 4.195312 20.273438 4.476562 C 20.3125 4.519531 20.359375 4.535156 20.414062 4.523438 C 20.570312 4.789062 20.757812 5.039062 20.976562 5.273438 C 22.027344 6.699219 22.707031 8.292969 23.015625 10.054688 C 23.136719 10.207031 23.160156 10.378906 23.085938 10.570312 C 23.082031 10.738281 23.121094 10.894531 23.203125 11.039062 C 23.234375 11.679688 23.234375 12.320312 23.203125 12.960938 C 23.082031 13.210938 23.058594 13.46875 23.132812 13.734375 C 23.09375 13.804688 23.054688 13.875 23.015625 13.945312 C 22.707031 15.707031 22.027344 17.300781 20.976562 18.726562 C 20.757812 18.960938 20.570312 19.210938 20.414062 19.476562 C 20.359375 19.464844 20.3125 19.480469 20.273438 19.523438 C 20.054688 19.804688 19.804688 20.054688 19.523438 20.273438 C 19.480469 20.3125 19.464844 20.359375 19.476562 20.414062 C 19.210938 20.570312 18.960938 20.757812 18.726562 20.976562 C 17.300781 22.027344 15.707031 22.707031 13.945312 23.015625 C 13.792969 23.136719 13.621094 23.160156 13.429688 23.085938 C 13.261719 23.082031 13.105469 23.121094 12.960938 23.203125 C 12.320312 23.234375 11.679688 23.234375 11.039062 23.203125 C 10.789062 23.082031 10.53125 23.058594 10.265625 23.132812 C 10.195312 23.09375 10.125 23.054688 10.054688 23.015625 C 8.292969 22.707031 6.699219 22.027344 5.273438 20.976562 C 5.039062 20.757812 4.789062 20.570312 4.523438 20.414062 C 4.535156 20.359375 4.519531 20.3125 4.476562 20.273438 C 4.195312 20.054688 3.945312 19.804688 3.726562 19.523438 C 3.6875 19.480469 3.640625 19.464844 3.585938 19.476562 C 3.429688 19.210938 3.242188 18.960938 3.023438 18.726562 C 1.972656 17.300781 1.292969 15.707031 0.984375 13.945312 C 0.863281 13.792969 0.839844 13.621094 0.914062 13.429688 C 0.917969 13.261719 0.878906 13.105469 0.796875 12.960938 C 0.765625 12.320312 0.765625 11.679688 0.796875 11.039062 C 0.917969 10.789062 0.941406 10.53125 0.867188 10.265625 C 0.90625 10.195312 0.945312 10.125 0.984375 10.054688 C 1.292969 8.292969 1.972656 6.699219 3.023438 5.273438 C 3.242188 5.039062 3.429688 4.789062 3.585938 4.523438 C 3.640625 4.535156 3.6875 4.519531 3.726562 4.476562 C 3.945312 4.195312 4.195312 3.945312 4.476562 3.726562 C 4.519531 3.6875 4.535156 3.640625 4.523438 3.585938 C 4.789062 3.429688 5.039062 3.242188 5.273438 3.023438 C 6.425781 2.207031 7.675781 1.589844 9.023438 1.171875 C 9.304688 1.125 9.585938 1.078125 9.867188 1.03125 C 10.015625 1.007812 10.148438 0.953125 10.265625 0.867188 C 10.542969 0.949219 10.800781 0.917969 11.039062 0.773438 Z M 15.960938 4.523438 C 16.140625 4.527344 16.3125 4.566406 16.476562 4.640625 C 17.457031 5.09375 18.449219 5.523438 19.453125 5.929688 C 19.492188 9.960938 19.484375 13.992188 19.429688 18.023438 C 18.355469 18.445312 17.292969 18.890625 16.242188 19.359375 C 16.105469 19.410156 15.964844 19.425781 15.820312 19.40625 C 13.890625 17.40625 11.945312 15.445312 9.984375 13.523438 C 9.003906 14.230469 8.027344 14.941406 7.054688 15.65625 C 7.023438 15.703125 6.992188 15.75 6.960938 15.796875 C 6.742188 15.9375 6.523438 16.078125 6.304688 16.21875 C 6.160156 16.425781 5.972656 16.472656 5.742188 16.359375 C 5.34375 16.058594 4.929688 15.769531 4.5 15.492188 C 4.476562 12.976562 4.46875 10.460938 4.476562 7.945312 C 4.902344 7.828125 5.324219 7.695312 5.742188 7.546875 C 5.980469 7.480469 6.167969 7.542969 6.304688 7.734375 C 6.523438 7.875 6.742188 8.015625 6.960938 8.15625 C 6.992188 8.203125 7.023438 8.25 7.054688 8.296875 C 8.027344 9.011719 9.003906 9.722656 9.984375 10.429688 C 11.460938 8.984375 12.921875 7.523438 14.367188 6.046875 C 14.410156 6.023438 14.457031 6.015625 14.507812 6.023438 C 14.5 5.972656 14.507812 5.925781 14.53125 5.882812 C 14.628906 5.804688 14.730469 5.734375 14.835938 5.671875 C 15.222656 5.292969 15.597656 4.910156 15.960938 4.523438 Z M 15.960938 4.523438 " />
        <path style=" stroke:none;fill-rule:evenodd;fill-opacity:1;"
              d="M 15.820312 9.070312 C 15.867188 9.070312 15.914062 9.070312 15.960938 9.070312 C 15.96875 11.023438 15.960938 12.976562 15.9375 14.929688 C 14.632812 13.933594 13.328125 12.949219 12.023438 11.976562 C 12.320312 11.738281 12.632812 11.511719 12.960938 11.296875 C 12.992188 11.25 13.023438 11.203125 13.054688 11.15625 C 13.273438 11.015625 13.492188 10.875 13.710938 10.734375 C 13.742188 10.6875 13.773438 10.640625 13.804688 10.59375 C 14.023438 10.453125 14.242188 10.3125 14.460938 10.171875 C 14.492188 10.125 14.523438 10.078125 14.554688 10.03125 C 14.773438 9.890625 14.992188 9.75 15.210938 9.609375 C 15.40625 9.421875 15.609375 9.242188 15.820312 9.070312 Z M 15.820312 9.070312 " />
        <path style=" stroke:none;fill-rule:evenodd;fill-opacity:1;"
              d="M 6.023438 10.054688 C 6.835938 10.691406 7.648438 11.332031 8.460938 11.976562 C 7.652344 12.597656 6.855469 13.238281 6.070312 13.898438 C 6.023438 12.617188 6.007812 11.335938 6.023438 10.054688 Z M 6.023438 10.054688 " />
    </g>
</svg>